<svg width="55" height="50" viewBox="0 0 55 50" fill="none" xmlns="http://www.w3.org/2000/svg">
<path d="M54.0616 47.5497L53.3109 47.527L53.3137 46.6787C54.589 46.0651 55.2337 44.7531 54.9226 43.386C54.6271 42.0881 53.4395 41.1465 52.0964 41.1465C52.0709 41.1465 52.0455 41.1465 52.02 41.1465C50.6741 41.1818 49.4808 42.1998 49.2475 43.516C49.01 44.8464 49.666 46.1061 50.8847 46.6787V47.5129L48.6368 47.5044L48.6198 35.8446C48.6184 34.3856 47.435 33.1357 46.0368 33.1145L44.3981 33.0891L44.401 31.8859C44.401 31.2624 44.1818 30.6983 43.7803 30.2982C43.383 29.9009 42.826 29.6832 42.2053 29.6832L36.7564 29.7002V28.9226L36.7536 28.8872C36.6476 28.0587 36.2375 27.3461 35.5985 26.881C34.999 26.4427 34.2299 26.2419 33.4184 26.3042L33.359 24.8126C33.3138 23.6843 32.416 22.8968 31.1761 22.8968H23.8214C22.5984 22.8968 21.6808 23.6999 21.6398 24.8083L21.5847 26.3027C20.7732 26.2405 20.004 26.4427 19.4046 26.8796C18.7655 27.3461 18.3541 28.0587 18.2453 28.8872L18.2424 29.7016H16.0369L12.7808 29.6888C11.5254 29.6888 10.6106 30.5527 10.6035 31.7445L10.5965 33.0863L9.23072 33.0905C7.89325 33.0947 6.40025 34.1721 6.39601 35.7131L6.35784 47.5101L4.11269 47.5157V46.683C5.39503 46.0736 6.03973 44.763 5.72303 43.3902C5.42048 42.0824 4.23569 41.1507 2.88832 41.1507C2.8657 41.1507 2.84449 41.1507 2.82187 41.1507C1.46884 41.1846 0.274163 42.2026 0.0451236 43.5203C-0.183916 44.8365 0.473512 46.0962 1.68657 46.6844L1.6894 47.5115L1.05742 47.527C0.763345 47.5341 0.504616 47.6515 0.312336 47.8664C0.0946073 48.1081 -0.0184984 48.463 0.00977802 48.815C0.0451236 49.2576 0.364647 49.9164 1.10266 49.9164L53.9428 49.9122C54.2298 49.9122 54.4787 49.8104 54.6625 49.6152C54.9269 49.3381 55.0032 48.9154 54.9891 48.6383C54.9622 48.1237 54.63 47.5695 54.0658 47.5525L54.0616 47.5497ZM52.3537 44.4788C52.1105 44.5962 51.8292 44.5368 51.6991 44.3417C51.6185 44.2201 51.5902 44.0476 51.627 43.9048C51.6595 43.7804 51.7373 43.6843 51.8589 43.6221C51.9423 43.5796 52.0328 43.557 52.119 43.557C52.1727 43.557 52.2236 43.5655 52.2731 43.5825C52.3862 43.6206 52.4767 43.6984 52.5234 43.796C52.6336 44.0278 52.5898 44.3643 52.3523 44.4788H52.3537ZM46.2361 47.5101L36.755 47.5143V35.5067H40.1722L40.3772 35.4954L45.7059 35.4926C46.0226 35.5209 46.2135 35.7103 46.2304 36.003L46.2347 47.5101H46.2361ZM41.9819 32.1135L41.9777 33.0962L36.755 33.0891V32.1178H40.0634L40.2613 32.1107L41.9819 32.1135ZM24.0447 26.3084V25.3131L30.9484 25.306V26.3056L24.0447 26.307V26.3084ZM20.6374 29.2421C20.6586 28.9211 20.834 28.7444 21.1719 28.7034H33.8227C34.1507 28.7274 34.336 28.9098 34.3572 29.2251V47.5058L20.6374 47.5129V29.2421ZM18.2396 32.1178V33.0891H14.7149L14.5283 33.0919L13.0127 33.0891V32.098L14.2554 32.0994V32.1178H18.2396ZM18.2396 35.5067V47.5129H8.76133V36.0199C8.78396 35.7103 8.97624 35.5166 9.27597 35.4898L14.3643 35.4926V35.5053H18.241L18.2396 35.5067ZM3.35912 44.2201C3.32095 44.3375 3.2446 44.4294 3.14564 44.4802C2.9067 44.6004 2.62818 44.5425 2.4981 44.3431C2.41752 44.2201 2.38924 44.0476 2.42883 43.902C2.46135 43.7776 2.5391 43.6843 2.65787 43.6235C2.74411 43.5796 2.83035 43.557 2.91518 43.557C2.96608 43.557 3.01556 43.5655 3.06363 43.5811C3.18098 43.6192 3.27712 43.7012 3.33085 43.8044C3.39447 43.9303 3.40578 44.0816 3.36054 44.2201H3.35912Z" fill="#492F87"/>
<path d="M8.39091 27.8678C8.6044 27.8678 8.82071 27.8509 9.03561 27.8155C9.35514 27.7646 9.74111 27.783 10.1525 27.8042C11.4504 27.8664 13.0664 27.9456 14.23 25.9931C14.7842 25.0614 15.0627 24.0053 15.1306 22.5674C15.149 22.1701 15.0288 21.8153 14.7899 21.5664C14.5665 21.3332 14.2653 21.2116 13.9303 21.2186C13.4354 21.2201 12.9929 21.2709 12.5871 21.3317C12.4896 20.007 11.6272 18.415 10.8114 17.5964C10.3731 17.1567 9.96308 16.9475 9.59549 16.9743C9.23072 16.9998 8.81223 17.2882 8.35274 17.8297C7.61897 18.695 6.86823 20.1498 6.78764 21.3346C6.39601 21.2752 5.945 21.2201 5.44168 21.2158C5.10095 21.2158 4.80546 21.3346 4.59056 21.558C4.3488 21.8082 4.22579 22.1659 4.24134 22.5646C4.29931 23.9629 4.5849 25.0529 5.14054 25.9959C5.83048 27.168 7.04637 27.8678 8.39233 27.8678H8.39091ZM10.1667 21.4547C10.1907 21.8959 10.0324 22.2847 9.69304 22.6127C9.42442 22.3709 9.26324 22.091 9.21376 21.7785C9.14024 21.3162 9.30141 20.7521 9.68315 20.1371C9.98288 20.6135 10.1455 21.056 10.1667 21.4547ZM10.892 25.453C10.8821 25.1293 10.9655 24.8465 11.138 24.609C11.4024 24.247 11.8816 23.9742 12.5306 23.8144C12.3779 24.4577 12.1135 24.9313 11.7615 25.1943C11.5211 25.3739 11.2299 25.4601 10.892 25.453ZM6.83712 23.8059C7.18634 23.8936 7.5101 24.0321 7.84235 24.2343C8.26791 24.4945 8.51109 24.9737 8.47433 25.453C7.63028 25.453 7.09303 24.913 6.83854 23.8059H6.83712Z" fill="#492F87"/>
<path d="M40.9993 18.2284C41.3372 18.4207 41.6313 18.5098 41.9211 18.5098C42.2109 18.5098 42.5361 18.4108 42.8981 18.1987C45.9208 16.4314 47.5806 13.2362 47.3375 9.65216C47.312 9.27326 47.264 8.91132 46.9614 8.64411C46.7055 8.41789 46.3124 8.37265 45.8148 8.3161C45.0315 8.22703 43.9584 8.10403 42.915 7.22887C42.3142 6.72414 41.6893 6.64214 41.2439 7.00832C39.9389 8.08141 38.8729 8.20582 38.0939 8.29631C37.3078 8.38821 36.5656 8.47586 36.492 9.65499C36.2658 13.2956 37.9511 16.5007 40.9993 18.2284ZM38.904 10.6475C40.0393 10.4807 41.0035 10.1173 41.9211 9.51219C42.8189 10.1046 43.7789 10.4679 44.9283 10.6489C44.8675 12.805 43.7563 14.7744 41.9353 15.9522C40.1454 14.8663 38.9931 12.8502 38.904 10.6475Z" fill="#492F87"/>
<path d="M24.6018 20.2982C24.6018 20.646 24.7262 20.9486 24.9637 21.1734C25.1871 21.3841 25.4868 21.5 25.8092 21.5C25.8361 21.5 25.8629 21.5 25.8898 21.4972C26.5698 21.4547 27.0109 20.9302 27.0124 20.1597V18.9396L28.4955 18.9042L28.5421 18.8986C30.2783 18.5677 31.432 16.9927 31.227 15.2368C31.0304 13.5515 29.6138 12.3031 27.9172 12.3031C27.8918 12.3031 27.8663 12.3031 27.8423 12.3031C26.0693 12.3413 24.6216 13.7664 24.6173 15.4785L24.6032 20.2968L24.6018 20.2982ZM27.9059 14.7193C28.3965 14.7193 28.8107 15.101 28.8348 15.5846C28.8475 15.8334 28.7556 16.0808 28.5831 16.2646C28.4135 16.4456 28.1788 16.546 27.9257 16.5474L27.0124 16.553L27.0053 15.6213C27.001 15.0855 27.4521 14.7363 27.8706 14.7193C27.8819 14.7193 27.8932 14.7193 27.9045 14.7193H27.9059Z" fill="#492F87"/>
<path d="M20.8735 4.7561C21.2977 5.01341 21.9594 5.07845 22.4104 4.60906C23.7691 3.20089 25.5717 2.4247 27.4916 2.42329C29.4187 2.42329 31.2383 3.20796 32.6139 4.63168C32.8203 4.84658 33.1073 4.96393 33.4212 4.96393C33.7266 4.96393 34.0277 4.85365 34.2455 4.66279C34.4689 4.46626 34.6329 4.10574 34.6512 3.76642C34.6668 3.48931 34.589 3.24613 34.4236 3.06517C32.6577 1.11692 30.1327 0 27.4888 0C24.8535 0.00141382 22.3326 1.12116 20.5724 3.06941C20.3815 3.28007 20.3024 3.5699 20.349 3.8866C20.4013 4.24853 20.612 4.59775 20.8721 4.7561H20.8735Z" fill="#492F87"/>
<path d="M13.0721 12.723L15.2098 12.7258L14.124 14.6741C13.9713 14.9469 13.943 15.2679 14.042 15.5775C14.1409 15.8885 14.3643 16.1529 14.6372 16.2816C14.8139 16.365 15.0118 16.4088 15.2112 16.4088C15.6424 16.4088 16.0029 16.2123 16.2009 15.8687L18.3937 12.0712C18.6227 11.6753 18.5209 11.1635 18.3301 10.8553C18.1237 10.5231 17.7391 10.3167 17.3249 10.3167L15.4134 10.3138L16.8286 8.27086C17.2075 7.72371 17.0859 6.9758 16.5586 6.60396C16.2899 6.41451 15.9181 6.33251 15.5901 6.38906C15.3031 6.43854 15.0684 6.58558 14.91 6.81038L12.0075 10.9543C11.7304 11.3502 11.9 11.927 12.0725 12.197C12.2789 12.5208 12.6607 12.723 13.0707 12.723H13.0721Z" fill="#492F87"/>
<path d="M45.6197 21.722C45.6084 21.4491 45.4882 21.2158 45.2705 21.0462C44.9962 20.8312 44.5749 20.7422 44.1974 20.8199C43.2558 21.0136 43.26 21.869 43.2628 22.3822C43.2628 22.4713 43.2642 22.7031 43.243 22.7696C42.7129 23.338 42.7129 24.059 43.2416 24.6146C43.2628 24.6825 43.2628 24.9144 43.2628 25.0049C43.2628 25.5195 43.2657 26.3805 44.203 26.5586C44.2907 26.5756 44.3826 26.5841 44.4731 26.5841C44.7813 26.5841 45.0754 26.4894 45.2804 26.3268C45.491 26.1585 45.6084 25.9281 45.6197 25.6595L45.6494 24.8932L47.4986 24.8988C47.4873 25.2141 47.4803 25.5393 47.6019 25.8687C47.7998 26.4045 48.3441 26.6095 48.7909 26.577C49.3522 26.536 49.7565 26.1896 49.8753 25.6524C49.9191 25.453 49.9106 25.2424 49.9007 25.0374C49.8965 24.9313 49.8866 24.7136 49.9064 24.6641C49.9488 24.5948 49.9912 24.534 50.0336 24.4718C50.192 24.24 50.3574 24.001 50.3277 23.5967C50.3079 23.3365 50.1948 23.1669 50.1029 23.0312C49.9827 22.853 49.8696 22.6848 49.9064 22.1687C49.9361 21.7573 49.8131 21.3897 49.5614 21.1366C49.3211 20.8963 48.986 20.7761 48.6156 20.8001C47.9496 20.844 47.5114 21.3657 47.4972 22.1291L47.4916 22.4911L45.6479 22.4868L45.6183 21.7248L45.6197 21.722Z" fill="#492F87"/>
<path d="M32.0046 6.88955C32.433 6.40461 32.4103 5.69346 31.9494 5.23538C29.4964 2.79512 25.501 2.79512 23.0452 5.23538C22.8062 5.4729 22.6776 5.78677 22.6861 6.11619C22.6946 6.44985 22.8402 6.76796 23.0848 6.98852C23.5937 7.44519 24.2752 7.40843 24.8209 6.89521C26.3733 5.43332 28.7231 5.46866 30.2868 6.97721C30.5116 7.19352 30.7873 7.30804 31.0856 7.30804C31.1011 7.30804 31.1167 7.30804 31.1322 7.30804C31.4588 7.29532 31.784 7.1398 32.0046 6.89097V6.88955Z" fill="#492F87"/>
<path d="M26.2249 9.70023C26.5557 9.71861 26.8795 9.59844 27.1382 9.36092C27.3743 9.1446 27.5482 9.20681 27.9879 9.44009C28.2198 9.56309 28.5082 9.71578 28.8206 9.71578C29.1571 9.71578 29.4498 9.53623 29.693 9.17995C30.0507 8.65542 29.9574 7.98385 29.4653 7.54557C28.3399 6.54458 26.649 6.54458 25.5321 7.54698C25.0005 8.02485 24.9397 8.77418 25.3921 9.29022C25.6084 9.53623 25.9039 9.68185 26.2249 9.69882V9.70023Z" fill="#492F87"/>
<path d="M44.4264 43.3506C43.858 43.205 43.1907 43.2121 42.727 43.3704C42.4273 43.4722 42.2053 43.6829 42.0851 43.9798C41.9508 44.3092 41.9664 44.722 42.1233 45.0331C42.3764 45.535 43.0691 45.7131 43.6318 45.7131C43.6912 45.7131 43.7492 45.7117 43.8057 45.7074C44.4999 45.6608 45.0103 45.354 45.1715 44.8874C45.2606 44.6259 45.2888 44.2215 45.098 43.8667C44.9566 43.6051 44.7247 43.427 44.4264 43.3492V43.3506Z" fill="#492F87"/>
<path d="M11.3769 38.9296C11.4306 38.9296 11.4829 38.9282 11.5353 38.9253C12.2464 38.8843 12.7695 38.5775 12.9349 38.1053C13.048 37.7844 13.0198 37.3857 12.8628 37.0902C12.7229 36.8258 12.4924 36.6434 12.1969 36.5657C11.637 36.4158 10.9853 36.4243 10.4933 36.5855C10.1978 36.683 9.97722 36.888 9.85422 37.1779C9.71567 37.5073 9.72698 37.9286 9.8825 38.2495C10.1271 38.7514 10.8142 38.9296 11.3769 38.9296Z" fill="#492F87"/>
<path d="M43.6347 38.931C43.6955 38.931 43.7563 38.9296 43.8156 38.9253C44.5056 38.8773 45.0117 38.5691 45.1687 38.1025C45.2577 37.8409 45.2846 37.4366 45.0966 37.0845C44.9566 36.8244 44.7261 36.6434 44.4292 36.5643C43.8609 36.4116 43.2063 36.4201 42.7228 36.5869C42.4244 36.6901 42.2025 36.9007 42.0823 37.1962C41.9494 37.5242 41.9635 37.9371 42.1205 38.2481C42.375 38.7514 43.0677 38.931 43.6333 38.931H43.6347Z" fill="#492F87"/>
<path d="M11.3783 42.3213C11.4292 42.3213 11.4801 42.3213 11.531 42.3171C12.2436 42.2775 12.7681 41.9707 12.9349 41.4999C13.0466 41.1818 13.0198 40.7859 12.8642 40.489C12.7243 40.2218 12.4952 40.038 12.2012 39.9574C11.6399 39.8047 10.9853 39.8118 10.4919 39.9772C10.1964 40.0762 9.97581 40.2826 9.85422 40.5724C9.71708 40.9005 9.72839 41.3204 9.88391 41.6413C10.1271 42.1418 10.8156 42.3213 11.3783 42.3213Z" fill="#492F87"/>
<path d="M44.4264 39.9574C43.858 39.8118 43.1907 39.8189 42.727 39.9772C42.4273 40.079 42.2053 40.2897 42.0851 40.5866C41.9508 40.916 41.9664 41.3288 42.1233 41.6399C42.3764 42.1418 43.0691 42.3199 43.6318 42.3199C43.6912 42.3199 43.7492 42.3185 43.8057 42.3143C44.4999 42.2676 45.0103 41.9608 45.1715 41.4943C45.2606 41.2327 45.2888 40.8284 45.098 40.4735C44.9566 40.2119 44.7247 40.0338 44.4264 39.956V39.9574Z" fill="#492F87"/>
<path d="M12.1998 43.3506C11.637 43.1965 10.9824 43.205 10.4919 43.3704C10.1964 43.4694 9.97581 43.6758 9.85422 43.9656C9.71708 44.2936 9.72839 44.7135 9.88391 45.0331C10.1271 45.5364 10.8156 45.7159 11.3783 45.7159C11.4278 45.7159 11.4759 45.7159 11.5239 45.7117C12.2379 45.6735 12.7653 45.3667 12.9349 44.8903C13.048 44.5736 13.0212 44.1763 12.8671 43.8808C12.7271 43.6136 12.4967 43.4284 12.1998 43.3478V43.3506Z" fill="#492F87"/>
<path d="M23.2813 32.1461C23.3364 32.1461 23.3916 32.1447 23.4453 32.1404C24.1352 32.0966 24.6442 31.7884 24.8096 31.3176C24.8959 31.073 24.927 30.6587 24.7347 30.2982C24.5933 30.0352 24.3643 29.8557 24.0688 29.7793C23.5033 29.6337 22.8359 29.6408 22.3694 29.7991C22.0711 29.8995 21.8491 30.1087 21.7275 30.4042C21.5918 30.7337 21.6059 31.1479 21.7628 31.4604C22.0159 31.9665 22.7398 32.1461 23.2827 32.1461H23.2813Z" fill="#492F87"/>
<path d="M31.7303 32.1475C31.7784 32.1475 31.8278 32.1475 31.8745 32.1432C32.5955 32.1037 33.1257 31.7954 33.2926 31.319C33.4057 30.998 33.3774 30.6008 33.2219 30.3053C33.0819 30.0395 32.8514 29.8585 32.556 29.7793C31.9961 29.6295 31.3443 29.6379 30.8523 29.7991C30.5582 29.8967 30.3377 30.0989 30.2147 30.3873C30.0747 30.7153 30.0846 31.1366 30.2401 31.4604C30.4833 31.9665 31.169 32.1475 31.7303 32.1475Z" fill="#492F87"/>
<path d="M24.0674 33.1711C23.499 33.0255 22.8317 33.0325 22.368 33.1909C22.0696 33.2927 21.8477 33.5033 21.7261 33.7988C21.5918 34.1268 21.6059 34.5411 21.7628 34.8535C22.0159 35.3569 22.7115 35.5364 23.2785 35.5364C23.335 35.5364 23.3902 35.535 23.4439 35.5308C24.1366 35.4855 24.6485 35.1787 24.811 34.7107C24.8973 34.4633 24.9312 34.0462 24.7404 33.6914C24.599 33.4284 24.3671 33.2489 24.0674 33.1711Z" fill="#492F87"/>
<path d="M32.5574 33.1711C31.9933 33.017 31.3387 33.0255 30.8495 33.1909C30.554 33.2913 30.3334 33.4963 30.2133 33.7847C30.0775 34.1099 30.0888 34.5269 30.2444 34.8493C30.4875 35.354 31.1761 35.535 31.7402 35.535C31.7897 35.535 31.8377 35.535 31.8858 35.5308C32.5998 35.4926 33.1257 35.1858 33.294 34.7122C33.4071 34.394 33.3802 33.9982 33.2247 33.7027C33.0847 33.4355 32.8543 33.2517 32.5588 33.1711H32.5574Z" fill="#492F87"/>
<path d="M24.0674 36.5643C23.499 36.4186 22.8331 36.4257 22.368 36.5841C22.0696 36.6859 21.8477 36.8965 21.7261 37.1934C21.5918 37.5228 21.6059 37.9357 21.7628 38.2467C22.0159 38.7486 22.7087 38.9268 23.2714 38.9268C23.3308 38.9268 23.3887 38.9253 23.4453 38.9211C24.1395 38.8744 24.6499 38.5676 24.811 38.1011C24.9001 37.8395 24.9284 37.4352 24.7375 37.0803C24.5961 36.8188 24.3643 36.6392 24.066 36.5629L24.0674 36.5643Z" fill="#492F87"/>
<path d="M32.5588 36.5643C31.9961 36.4116 31.3401 36.4186 30.8509 36.5841C30.5554 36.683 30.3348 36.8894 30.2133 37.1793C30.0761 37.5073 30.0874 37.9258 30.2429 38.2467C30.4875 38.75 31.1747 38.9296 31.7374 38.9296C31.7868 38.9296 31.8349 38.9296 31.883 38.9253C32.597 38.8872 33.1243 38.5804 33.294 38.1039C33.4071 37.7872 33.3802 37.3913 33.2261 37.0944C33.0861 36.8272 32.8557 36.6434 32.5588 36.5614V36.5643Z" fill="#492F87"/>
<path d="M24.0674 39.9574C23.499 39.8118 22.8331 39.8189 22.368 39.9772C22.0696 40.079 21.8477 40.2897 21.7261 40.5866C21.5918 40.916 21.6059 41.3288 21.7628 41.6399C22.0159 42.1418 22.7087 42.3199 23.2714 42.3199C23.3308 42.3199 23.3887 42.3185 23.4453 42.3143C24.1395 42.2676 24.6499 41.9608 24.811 41.4943C24.9001 41.2327 24.9284 40.8284 24.7375 40.4735C24.5961 40.2119 24.3643 40.0324 24.066 39.956L24.0674 39.9574Z" fill="#492F87"/>
<path d="M31.7331 42.3256C31.784 42.3256 31.8349 42.3242 31.8844 42.3213C32.5998 42.2803 33.1271 41.9735 33.294 41.4985C33.4071 41.1804 33.3788 40.7845 33.2247 40.489C33.0847 40.2218 32.8543 40.038 32.5588 39.9574C31.9961 39.8047 31.3415 39.8118 30.8495 39.9772C30.554 40.0776 30.3334 40.284 30.2118 40.5753C30.0747 40.9033 30.0874 41.3232 30.2429 41.6413C30.489 42.1446 31.1732 42.3242 31.7331 42.3242V42.3256Z" fill="#492F87"/>
<path d="M24.0674 43.3506C23.499 43.205 22.8331 43.2121 22.368 43.3704C22.0696 43.4722 21.8477 43.6829 21.7261 43.9798C21.5918 44.3092 21.6059 44.722 21.7628 45.0331C22.0159 45.535 22.7087 45.7131 23.2714 45.7131C23.3308 45.7131 23.3887 45.7117 23.4453 45.7074C24.1395 45.6608 24.6499 45.354 24.811 44.8874C24.9001 44.6259 24.9284 44.2215 24.7375 43.8667C24.5961 43.6051 24.3643 43.4255 24.066 43.3492L24.0674 43.3506Z" fill="#492F87"/>
<path d="M32.5588 43.3506C31.9961 43.1965 31.3415 43.205 30.8509 43.3704C30.5554 43.4694 30.3348 43.6758 30.2133 43.9656C30.0761 44.2936 30.0874 44.7121 30.2429 45.0331C30.4875 45.5364 31.1747 45.7159 31.7374 45.7159C31.7868 45.7159 31.8349 45.7159 31.883 45.7117C32.597 45.6735 33.1243 45.3667 33.294 44.8903C33.4071 44.5736 33.3802 44.1777 33.2261 43.8808C33.0861 43.6136 32.8557 43.4298 32.5588 43.3478V43.3506Z" fill="#492F87"/>
</svg>
