<svg width="68" height="57" viewBox="0 0 68 57" fill="none" xmlns="http://www.w3.org/2000/svg">
<path d="M63.8075 29.7856C63.8075 27.9579 62.3257 26.4762 60.4979 26.4762H7.2809C5.45317 26.4762 3.97142 27.9579 3.97142 29.7856V37.0665H63.8075V29.7856ZM55.7322 52.9522H59.7036V48.9808H55.7322V52.9522ZM8.07518 52.9522H12.0466V48.9808H8.07518V52.9522ZM3.97142 45.0094H63.8075V41.038H3.97142V45.0094ZM27.9323 19.6413C27.9322 19.0293 27.4363 18.5333 26.8243 18.5333H18.4499C17.838 18.5333 17.3419 19.0293 17.3419 19.6413V22.5047H27.9323V19.6413ZM50.437 19.6413C50.437 19.0293 49.9409 18.5333 49.329 18.5333H40.9546C40.3426 18.5333 39.8466 19.0293 39.8465 19.6413V22.5047H50.437V19.6413ZM54.4084 22.5047H58.3798V7.2809C58.3798 5.45315 56.8982 3.97143 55.0704 3.97142H12.7085C10.8808 3.97142 9.39907 5.45318 9.39906 7.2809V22.5047H13.3705V19.6413C13.3705 16.836 15.6446 14.5619 18.4499 14.5619H26.8243C29.6296 14.5619 31.9037 16.836 31.9037 19.6413V22.5047H35.8751V19.6413C35.8751 16.836 38.1493 14.5619 40.9546 14.5619H49.329C52.1343 14.5619 54.4084 16.836 54.4084 19.6413V22.5047ZM62.3513 22.7428C65.4748 23.5625 67.7789 26.405 67.7789 29.7856V46.9951L67.7782 47.0464C67.751 48.1193 66.8727 48.9808 65.7932 48.9808H63.675V54.9379C63.675 56.0346 62.786 56.9236 61.6893 56.9236H53.7465C52.6498 56.9236 51.7608 56.0346 51.7608 54.9379V48.9808H16.018V54.9379C16.018 56.0346 15.129 56.9236 14.0323 56.9236H6.08948C4.99281 56.9236 4.10377 56.0346 4.10377 54.9379V48.9808H1.98571C0.889032 48.9808 0 48.0918 0 46.9951V29.7856C0 26.405 2.30415 23.5625 5.42764 22.7428V7.2809C5.42765 3.25982 8.68746 4.09391e-06 12.7085 0H55.0704C59.0916 1.31018e-05 62.3512 3.25986 62.3513 7.2809V22.7428Z" fill="#492F87"/>
</svg>
