<svg width="55" height="55" viewBox="0 0 55 55" fill="none" xmlns="http://www.w3.org/2000/svg">
<path d="M53.3882 39.6383H51.4546V36.0934C51.4546 35.2036 50.7332 34.4821 49.8433 34.4821C48.9534 34.4821 48.232 35.2036 48.232 36.0934V39.6383H42.8609V1.61131C42.8609 0.721439 42.1395 0 41.2496 0H13.7499C12.86 0 12.1386 0.721439 12.1386 1.61131V39.6383H6.76752V36.0934C6.76752 35.2036 6.04608 34.4821 5.1562 34.4821C4.26633 34.4821 3.54489 35.2036 3.54489 36.0934V39.6383H1.61131C0.721439 39.6383 0 40.3598 0 41.2496V53.3882C0 54.2781 0.721439 54.9995 1.61131 54.9995H53.3882C54.2781 54.9995 54.9995 54.2781 54.9995 53.3882V41.2496C54.9995 40.3598 54.2781 39.6383 53.3882 39.6383ZM3.22263 42.8609H12.1386V51.7769H3.22263V42.8609ZM23.0955 51.7769V48.0171H31.904V51.7769H23.0955ZM35.1266 51.7769V46.4058C35.1266 45.516 34.4052 44.7945 33.5153 44.7945H21.4842C20.5943 44.7945 19.8729 45.516 19.8729 46.4058V51.7769H15.3612V3.22263H39.6383V51.7769H35.1266ZM51.7769 51.7769H42.8609V42.8609H51.7769V51.7769Z" fill="#492F87"/>
<path d="M34.3746 6.98233H20.6247C19.7349 6.98233 19.0134 7.70377 19.0134 8.59364C19.0134 9.48352 19.7349 10.205 20.6247 10.205H34.3746C35.2645 10.205 35.9859 9.48352 35.9859 8.59364C35.9859 7.70377 35.2645 6.98233 34.3746 6.98233Z" fill="#492F87"/>
<path d="M23.2028 13.8573H21.4841C20.5942 13.8573 19.8728 14.5787 19.8728 15.4686C19.8728 16.3585 20.5942 17.0799 21.4841 17.0799H23.2028C24.0927 17.0799 24.8141 16.3585 24.8141 15.4686C24.8141 14.5787 24.0927 13.8573 23.2028 13.8573Z" fill="#492F87"/>
<path d="M33.5153 13.8573H31.7966C30.9067 13.8573 30.1852 14.5787 30.1852 15.4686C30.1852 16.3585 30.9067 17.0799 31.7966 17.0799H33.5153C34.4052 17.0799 35.1266 16.3585 35.1266 15.4686C35.1266 14.5787 34.4052 13.8573 33.5153 13.8573Z" fill="#492F87"/>
<path d="M23.2028 20.7322H21.4841C20.5942 20.7322 19.8728 21.4537 19.8728 22.3435C19.8728 23.2334 20.5942 23.9548 21.4841 23.9548H23.2028C24.0927 23.9548 24.8141 23.2334 24.8141 22.3435C24.8141 21.4537 24.0927 20.7322 23.2028 20.7322Z" fill="#492F87"/>
<path d="M33.5153 20.7322H31.7966C30.9067 20.7322 30.1852 21.4537 30.1852 22.3435C30.1852 23.2334 30.9067 23.9548 31.7966 23.9548H33.5153C34.4052 23.9548 35.1266 23.2334 35.1266 22.3435C35.1266 21.4537 34.4052 20.7322 33.5153 20.7322Z" fill="#492F87"/>
<path d="M23.2028 27.6072H21.4841C20.5942 27.6072 19.8728 28.3286 19.8728 29.2185C19.8728 30.1083 20.5942 30.8298 21.4841 30.8298H23.2028C24.0927 30.8298 24.8141 30.1083 24.8141 29.2185C24.8141 28.3286 24.0927 27.6072 23.2028 27.6072Z" fill="#492F87"/>
<path d="M33.5153 27.6072H31.7966C30.9067 27.6072 30.1852 28.3286 30.1852 29.2185C30.1852 30.1083 30.9067 30.8298 31.7966 30.8298H33.5153C34.4052 30.8298 35.1266 30.1083 35.1266 29.2185C35.1266 28.3286 34.4052 27.6072 33.5153 27.6072Z" fill="#492F87"/>
<path d="M23.2028 34.4821H21.4841C20.5942 34.4821 19.8728 35.2035 19.8728 36.0934C19.8728 36.9833 20.5942 37.7047 21.4841 37.7047H23.2028C24.0927 37.7047 24.8141 36.9833 24.8141 36.0934C24.8141 35.2035 24.0927 34.4821 23.2028 34.4821Z" fill="#492F87"/>
<path d="M33.5153 34.4821H31.7966C30.9067 34.4821 30.1852 35.2035 30.1852 36.0934C30.1852 36.9833 30.9067 37.7047 31.7966 37.7047H33.5153C34.4052 37.7047 35.1266 36.9833 35.1266 36.0934C35.1266 35.2035 34.4052 34.4821 33.5153 34.4821Z" fill="#492F87"/>
</svg>
