<svg width="55" height="55" viewBox="0 0 55 55" fill="none" xmlns="http://www.w3.org/2000/svg">
<path d="M53.3498 0H40.4249C39.5136 0 38.7748 0.738849 38.7748 1.65011V12.9249H27.4999C26.5887 12.9249 25.8498 13.6638 25.8498 14.575V25.8498H14.575C13.6638 25.8498 12.9249 26.5887 12.9249 27.4999V38.7749H1.65011C0.738849 38.7749 0 39.5137 0 40.425V53.3499C0 54.2613 0.738849 55 1.65011 55H53.35C54.2614 55 55.0001 54.2612 55 53.3499V1.65011C54.9999 0.738849 54.2612 0 53.3498 0ZM51.6998 51.6999H3.30022V42.0751H14.575C15.4863 42.0751 16.2251 41.3362 16.2251 40.425V29.1502H27.4999C28.4112 29.1502 29.1501 28.4113 29.1501 27.5001V16.2252H40.425C41.3362 16.2252 42.0751 15.4864 42.0751 14.5751V3.30022H51.6998V51.6999Z" fill="#492F87"/>
</svg>
