<svg width="55" height="55" viewBox="0 0 55 55" fill="none" xmlns="http://www.w3.org/2000/svg">
<path d="M53.3882 0H1.61131C0.721439 0 0 0.721439 0 1.61131V53.3882C0 54.2781 0.721439 54.9995 1.61131 54.9995H53.3882C54.2781 54.9995 54.9995 54.2781 54.9995 53.3882V1.61131C54.9995 0.721439 54.2781 0 53.3882 0ZM9.66788 3.22263H45.3316V38.6715H38.587L34.1599 34.2444V27.7701L35.0812 28.1998C35.3014 28.3025 35.533 28.3512 35.7611 28.3512C36.3678 28.3512 36.9491 28.0067 37.2224 27.4205C37.5985 26.614 37.2496 25.6552 36.443 25.2791L34.1599 24.2144V22.6658C34.1599 21.7759 33.4384 21.0545 32.5485 21.0545C31.6587 21.0545 30.9372 21.7759 30.9372 22.6658V22.7117L28.0004 21.3423C28.0241 21.1424 28.0376 20.9393 28.0376 20.7331C28.0376 17.89 25.7245 15.5769 22.8814 15.5769C20.0383 15.5769 17.7252 17.89 17.7252 20.7331C17.7252 23.5762 20.0383 25.8893 22.8814 25.8893C24.3603 25.8893 25.6948 25.2625 26.636 24.2618L30.9372 26.2674V34.2444L26.5101 38.6715H9.66788V3.22263ZM34.2752 38.6715H30.8217L32.5485 37.1905L34.2752 38.6715ZM22.8815 22.6667C21.8154 22.6667 20.9479 21.7992 20.9479 20.7331C20.9479 19.6669 21.8154 18.7995 22.8815 18.7995C23.9477 18.7995 24.8151 19.6669 24.8151 20.7331C24.8151 21.7992 23.9477 22.6667 22.8815 22.6667ZM3.22263 3.22263H6.44525V6.44525H3.22263V3.22263ZM3.22263 9.66788H6.44525V12.8905H3.22263V9.66788ZM3.22263 16.1131H6.44525V19.3358H3.22263V16.1131ZM3.22263 22.5584H6.44525V25.781H3.22263V22.5584ZM3.22263 29.0036H6.44525V38.6715H3.22263V29.0036ZM13.1054 51.7769H3.22263V41.8942H13.1054V51.7769ZM38.6715 51.7769H16.328V48.4468H38.6715V51.7769ZM38.6715 45.2242H16.328V41.8942H38.6715V45.2242ZM51.7769 51.7769H41.8942V41.8942H51.7769V51.7769ZM51.7769 38.6715H48.5543V29.0036H51.7769V38.6715ZM51.7769 25.781H48.5543V22.5584H51.7769V25.781ZM51.7769 19.3358H48.5543V16.1131H51.7769V19.3358ZM51.7769 12.8905H48.5543V9.66788H51.7769V12.8905ZM51.7769 6.44525H48.5543V3.22263H51.7769V6.44525Z" fill="#492F87"/>
</svg>
