<svg width="35" height="35" viewBox="0 0 35 35" fill="none" xmlns="http://www.w3.org/2000/svg">
<path d="M26.9953 7.72732H33.9732C34.7748 7.72732 35.2659 6.84644 34.8468 6.16482L31.3582 0.490713C31.0179 -0.0626567 30.3843 0.00235321 30.4846 0.00235321C30.1285 0.00235321 29.7977 0.187197 29.6111 0.490645L26.1218 6.16469C25.7019 6.84732 26.1948 7.72732 26.9953 7.72732ZM30.4846 2.98556L32.139 5.67646H28.8297L30.4846 2.98556Z" fill="white"/>
<path d="M33.9732 9.77817H26.9953C26.1936 9.77817 25.7025 10.6591 26.1218 11.3407L29.6111 17.0148C30.0108 17.6647 30.9581 17.6654 31.3582 17.0147L34.8469 11.3407C35.2666 10.658 34.7737 9.77817 33.9732 9.77817ZM30.4846 14.5199L28.8297 11.829H32.139L30.4846 14.5199Z" fill="white"/>
<path d="M22.7442 23.8699C22.4534 23.5791 22.1195 23.3574 21.7631 23.2029C22.6781 22.0133 22.6183 20.2743 21.4979 19.1539C21.215 18.8709 20.8902 18.6548 20.5433 18.5054C21.2115 17.3418 21.0616 15.8116 20.0485 14.7986C19.794 14.5441 19.5058 14.3436 19.1979 14.1972L22.0326 11.3625C23.2534 10.1416 23.2371 8.15497 21.9821 6.95725C20.7835 5.81305 18.8404 5.85003 17.6505 7.03962L11.0797 13.6102C11.0785 13.6114 11.0774 13.6128 11.0762 13.614L10.8043 13.886C10.657 13.5777 10.4567 13.289 10.2027 13.035C9.0024 11.8348 7.05579 11.8293 5.85007 13.035C5.84959 13.0355 5.84925 13.036 5.84884 13.0364L2.34466 16.5405C-0.781554 19.6666 -0.781554 24.7532 2.34466 27.8794L7.12087 32.6554C10.2469 35.7814 15.3338 35.7816 18.4601 32.6554L22.8217 28.2939C23.9 27.2156 24.0476 25.1733 22.7442 23.8699ZM17.0098 31.2053C14.6831 33.5317 10.8976 33.5319 8.57098 31.2053L3.79484 26.4292C1.46829 24.1027 1.46829 20.3172 3.79484 17.9907L7.30038 14.4853C7.30059 14.4851 7.30079 14.4849 7.301 14.4847C7.70685 14.0796 8.35537 14.0882 8.75247 14.4853C9.12127 14.8541 9.15586 15.4392 8.83286 15.8462C8.83122 15.8483 8.82958 15.8504 8.82794 15.8525C8.80545 15.8812 8.78009 15.9098 8.75247 15.9374L6.22181 18.468C5.82136 18.8684 5.82136 19.5177 6.22181 19.9181C6.62301 20.3193 7.27263 20.3179 7.67239 19.9181L12.7131 14.8776C12.7143 14.8764 12.7153 14.8751 12.7165 14.8738L19.1006 8.48993C19.509 8.08162 20.1662 8.05941 20.566 8.44092C20.9897 8.84534 20.9855 9.50911 20.5823 9.91243L15.694 14.8005C15.6928 14.8017 15.6918 14.8031 15.6906 14.8043L11.4881 19.0066C11.0876 19.4071 11.0876 20.0564 11.4881 20.4568C11.8885 20.8573 12.5378 20.8573 12.9383 20.4568L17.148 16.2472C17.5497 15.8494 18.1991 15.8497 18.5982 16.2488C18.9987 16.6493 18.9985 17.3004 18.5964 17.7027L17.1434 19.1556C17.142 19.157 17.1409 19.1584 17.1396 19.1598L14.3905 21.9089C13.99 22.3093 13.99 22.9586 14.3905 23.3591C14.7909 23.7595 15.4402 23.7596 15.8407 23.3591L18.5936 20.6062C18.5945 20.6053 18.5951 20.6043 18.596 20.6034C18.9976 20.2045 19.6481 20.2046 20.0476 20.604C20.2411 20.7975 20.3476 21.0553 20.3474 21.33C20.3473 21.605 20.2401 21.8635 20.0457 22.0579L19.2355 22.8681C19.2343 22.8694 19.2333 22.8707 19.2321 22.872L17.2928 24.8112C16.8924 25.2116 16.8924 25.8609 17.2928 26.2613C17.6932 26.6618 18.3426 26.6619 18.743 26.2613C18.7697 26.2346 19.1058 25.9035 19.6856 25.3235C20.1299 24.8792 20.8514 24.8777 21.294 25.3201C21.7158 25.742 21.7391 26.4192 21.3416 26.8736L17.0098 31.2053Z" fill="white"/>
</svg>
