<svg width="44" height="43" viewBox="0 0 44 43" fill="none" xmlns="http://www.w3.org/2000/svg">
<g>
<path d="M21.494 0C16.0517 0.060825 10.9262 2.50698 7.53677 6.65952C4.17091 10.7282 2.85963 16.0578 3.96866 21.1737C4.68329 24.4599 6.32324 27.4863 8.70479 29.9144C11.6392 32.954 14.646 36.0248 17.5534 38.9971C18.7889 40.2579 20.026 41.5188 21.2614 42.7781C21.3609 42.903 21.5058 42.9819 21.6659 43C21.8092 42.9638 21.9306 42.8718 22.003 42.7452L22.0553 42.6712L22.116 42.6038C24.2194 40.3023 26.4408 38.065 28.5898 35.895C30.8045 33.6592 33.095 31.3479 35.2322 28.9905C39.8284 23.9125 40.8683 16.7976 37.9441 10.4142C34.9642 3.94869 28.8224 0.0476737 21.494 0Z" fill="white"/>
<path d="M30.6318 26.563L29.042 13.4588C29.0086 13.1844 28.7415 12.9761 28.4228 12.9761H25.4347V12.3864C25.4347 10.5483 23.7069 9.05273 21.5833 9.05273C19.4595 9.05273 17.7317 10.5483 17.7317 12.3864V12.9761H14.7436C14.4249 12.9761 14.1578 13.1844 14.1244 13.4588L12.5346 26.563C12.5163 26.7148 12.5732 26.8663 12.6912 26.9799C12.8093 27.0933 12.9775 27.1581 13.1538 27.1581H30.0124C30.1889 27.1581 30.3571 27.0933 30.4751 26.9799C30.5933 26.8663 30.6501 26.7148 30.6318 26.563ZM18.9768 12.3864C18.9768 11.1425 20.1461 10.1304 21.5833 10.1304C23.0203 10.1304 24.1896 11.1425 24.1896 12.3864V12.9761H18.9768V12.3864ZM13.8451 26.0804L15.3042 14.0538H17.7317V15.2414C17.7317 15.5389 18.0105 15.7802 18.3542 15.7802C18.698 15.7802 18.9768 15.5389 18.9768 15.2414V14.0538H24.1896V15.2414C24.1896 15.5389 24.4684 15.7802 24.8122 15.7802C25.1559 15.7802 25.4347 15.5389 25.4347 15.2414V14.0538H27.8622L29.3212 26.0804H13.8451Z" fill="#2D2273"/>
</g>
<defs>
<filter id="filter0_d_1025_4603" x="-0.000325441" y="0" width="43.1667" height="50.1667" filterUnits="userSpaceOnUse" color-interpolation-filters="sRGB">
<feFlood flood-opacity="0" result="BackgroundImageFix"/>
<feColorMatrix in="SourceAlpha" type="matrix" values="0 0 0 0 0 0 0 0 0 0 0 0 0 0 0 0 0 0 127 0" result="hardAlpha"/>
<feOffset dy="3.58333"/>
<feGaussianBlur stdDeviation="1.79167"/>
<feComposite in2="hardAlpha" operator="out"/>
<feColorMatrix type="matrix" values="0 0 0 0 0 0 0 0 0 0 0 0 0 0 0 0 0 0 0.45 0"/>
<feBlend mode="normal" in2="BackgroundImageFix" result="effect1_dropShadow_1025_4603"/>
<feBlend mode="normal" in="SourceGraphic" in2="effect1_dropShadow_1025_4603" result="shape"/>
</filter>
</defs>
</svg>
