<svg width="44" height="51" viewBox="0 0 44 51" fill="none" xmlns="http://www.w3.org/2000/svg">
<g filter="url(#filter0_d_1024_4574)">
<path d="M21.4945 0C16.0522 0.060825 10.9267 2.50698 7.53726 6.65952C4.1714 10.7282 2.86012 16.0578 3.96915 21.1737C4.68378 24.4599 6.32373 27.4863 8.70528 29.9144C11.6397 32.954 14.6465 36.0248 17.5539 38.9971C18.7894 40.2579 20.0265 41.5188 21.2619 42.7781C21.3614 42.903 21.5063 42.9819 21.6664 43C21.8097 42.9638 21.931 42.8718 22.0035 42.7452L22.0558 42.6712L22.1164 42.6038C24.2199 40.3023 26.4413 38.065 28.5903 35.895C30.805 33.6592 33.0955 31.3479 35.2327 28.9905C39.8289 23.9125 40.8688 16.7976 37.9446 10.4142C34.9647 3.94869 28.8229 0.0476737 21.4945 0Z" fill="white"/>
<path d="M22.3976 21.615H20.7687C20.4758 21.615 20.2383 21.8524 20.2383 22.1454C20.2383 22.4383 20.4758 22.6758 20.7687 22.6758H22.3976C22.6906 22.6758 22.928 22.4383 22.928 22.1454C22.928 21.8524 22.6905 21.615 22.3976 21.615Z" fill="#2D2273"/>
<path d="M29.7511 11.8651H28.3259V11.3511C28.3259 10.0837 27.2949 9.05273 26.0275 9.05273H17.1388C15.8715 9.05273 14.8405 10.0837 14.8405 11.3511V11.8651H13.4152C12.9278 11.8651 12.5312 12.2616 12.5312 12.7491V15.4763C12.5312 15.9637 12.9278 16.3603 13.4152 16.3603H14.8405V22.8606C14.8405 23.7469 15.4087 24.5026 16.1998 24.7836V25.9228C16.1998 26.6039 16.754 27.1581 17.4351 27.1581H18.6381C19.3192 27.1581 19.8734 26.6039 19.8734 25.9228V24.9008H23.293V25.9228C23.293 26.6039 23.8472 27.1581 24.5283 27.1581H25.7313C26.4124 27.1581 26.9666 26.6039 26.9666 25.9228V24.7836C27.7577 24.5026 28.3259 23.7469 28.3259 22.8606C28.3259 22.8555 28.3393 18.7701 28.3259 16.3603H29.7512C30.2386 16.3603 30.6352 15.9637 30.6352 15.4763V12.7491C30.6351 12.2616 30.2386 11.8651 29.7511 11.8651ZM27.2651 21.615H25.3093L24.8217 20.5071H27.2651V21.615ZM27.2651 19.4463C26.906 19.4463 22.9233 19.4463 22.1135 19.4463V12.9259H27.2651V19.4463ZM15.9013 19.4463V12.9259H21.0528V19.4463C20.4433 19.4463 16.3602 19.4463 15.9013 19.4463ZM18.3866 20.5071L17.899 21.615H15.9223V20.5071H18.3866ZM17.1388 10.1135H26.0275C26.7099 10.1135 27.2651 10.6687 27.2651 11.3511V11.8651H15.9013V11.3511C15.9013 10.6687 16.4565 10.1135 17.1388 10.1135ZM13.592 15.2995V12.9259H14.8405V15.2995H13.592ZM18.8126 25.9228C18.8126 26.019 18.7343 26.0973 18.6381 26.0973H17.4351C17.3389 26.0973 17.2606 26.019 17.2606 25.9228V24.9259H18.8126V25.9228ZM25.9058 25.9228C25.9058 26.019 25.8275 26.0973 25.7312 26.0973H24.5283C24.4321 26.0973 24.3538 26.019 24.3538 25.9228V24.9259H25.9058V25.9228ZM26.2857 23.84H16.8807C16.3407 23.84 15.9013 23.4007 15.9013 22.8606V22.6758H18.0144C18.3647 22.6758 18.6824 22.4686 18.8235 22.1479L19.5456 20.5071H23.6627L24.3849 22.1479C24.526 22.4686 24.8436 22.6758 25.194 22.6758H27.2651V22.8606C27.2651 23.4007 26.8257 23.84 26.2857 23.84ZM29.5744 15.2995H28.3259V12.9259H29.5744V15.2995Z" fill="#2D2273"/>
</g>
<defs>
<filter id="filter0_d_1024_4574" x="0.00016284" y="0" width="43.1667" height="50.1667" filterUnits="userSpaceOnUse" color-interpolation-filters="sRGB">
<feFlood flood-opacity="0" result="BackgroundImageFix"/>
<feColorMatrix in="SourceAlpha" type="matrix" values="0 0 0 0 0 0 0 0 0 0 0 0 0 0 0 0 0 0 127 0" result="hardAlpha"/>
<feOffset dy="3.58333"/>
<feGaussianBlur stdDeviation="1.79167"/>
<feComposite in2="hardAlpha" operator="out"/>
<feColorMatrix type="matrix" values="0 0 0 0 0 0 0 0 0 0 0 0 0 0 0 0 0 0 0.45 0"/>
<feBlend mode="normal" in2="BackgroundImageFix" result="effect1_dropShadow_1024_4574"/>
<feBlend mode="normal" in="SourceGraphic" in2="effect1_dropShadow_1024_4574" result="shape"/>
</filter>
</defs>
</svg>
