<svg width="44" height="43" viewBox="0 0 44 43" fill="none" xmlns="http://www.w3.org/2000/svg">
<g>
<path d="M21.494 0C16.0517 0.060825 10.9262 2.50698 7.53677 6.65952C4.17091 10.7282 2.85963 16.0578 3.96866 21.1737C4.68329 24.4599 6.32324 27.4863 8.70479 29.9144C11.6392 32.954 14.646 36.0248 17.5534 38.9971C18.7889 40.2579 20.026 41.5188 21.2614 42.7781C21.3609 42.903 21.5058 42.9819 21.6659 43C21.8092 42.9638 21.9306 42.8718 22.003 42.7452L22.0553 42.6712L22.116 42.6038C24.2194 40.3023 26.4408 38.065 28.5898 35.895C30.8045 33.6592 33.095 31.3479 35.2322 28.9905C39.8284 23.9125 40.8683 16.7976 37.9441 10.4142C34.9642 3.94869 28.8224 0.0476737 21.494 0Z" fill="white"/>
<path d="M30.4773 12.6458C30.4143 12.5705 30.3356 12.5099 30.2467 12.4683C30.1578 12.4267 30.0608 12.4052 29.9627 12.4052H16.4433L16.0335 10.154C15.9773 9.84504 15.8145 9.56556 15.5735 9.3643C15.3324 9.16304 15.0284 9.05278 14.7144 9.05273H13.2017C13.0239 9.05273 12.8533 9.12338 12.7276 9.24912C12.6019 9.37486 12.5312 9.54541 12.5312 9.72323C12.5312 9.90106 12.6019 10.0716 12.7276 10.1973C12.8533 10.3231 13.0239 10.3937 13.2017 10.3937H14.7102L16.8522 22.1518C16.9153 22.5005 17.0694 22.8263 17.2989 23.0963C16.9822 23.3922 16.7536 23.77 16.6384 24.1879C16.5233 24.6058 16.5261 25.0474 16.6466 25.4638C16.7671 25.8801 17.0005 26.255 17.3211 26.5468C17.6416 26.8386 18.0366 27.0359 18.4624 27.1168C18.8882 27.1977 19.3281 27.1592 19.7333 27.0054C20.1385 26.8515 20.4932 26.5885 20.7581 26.2454C21.0229 25.9023 21.1876 25.4925 21.2338 25.0615C21.28 24.6305 21.206 24.1952 21.0199 23.8037H24.8263C24.6763 24.1177 24.5987 24.4614 24.5992 24.8095C24.5992 25.2736 24.7368 25.7273 24.9946 26.1132C25.2525 26.4992 25.619 26.7999 26.0477 26.9776C26.4765 27.1552 26.9483 27.2017 27.4035 27.1111C27.8587 27.0206 28.2768 26.7971 28.605 26.4689C28.9331 26.1407 29.1566 25.7225 29.2472 25.2673C29.3377 24.8121 29.2912 24.3402 29.1136 23.9114C28.936 23.4826 28.6353 23.1161 28.2494 22.8582C27.8635 22.6003 27.4098 22.4627 26.9457 22.4627H18.8309C18.6739 22.4627 18.5218 22.4076 18.4013 22.3069C18.2808 22.2063 18.1994 22.0666 18.1713 21.9121L17.9057 20.4512H27.6271C28.0981 20.4511 28.5541 20.2857 28.9157 19.9839C29.2773 19.682 29.5215 19.2627 29.6057 18.7993L30.6248 13.1956C30.642 13.0987 30.6377 12.9993 30.6122 12.9042C30.5868 12.8092 30.5407 12.721 30.4773 12.6458ZM19.9061 24.8095C19.9061 25.0084 19.8471 25.2028 19.7366 25.3682C19.6261 25.5336 19.469 25.6625 19.2853 25.7386C19.1015 25.8148 18.8993 25.8347 18.7042 25.7959C18.5092 25.7571 18.33 25.6613 18.1893 25.5206C18.0487 25.38 17.9529 25.2008 17.9141 25.0057C17.8753 24.8106 17.8952 24.6083 17.9713 24.4246C18.0474 24.2408 18.1763 24.0837 18.3417 23.9732C18.5071 23.8627 18.7015 23.8037 18.9004 23.8037C19.1672 23.8037 19.4229 23.9097 19.6115 24.0983C19.8001 24.2869 19.9061 24.5427 19.9061 24.8095ZM27.9514 24.8095C27.9514 25.0084 27.8924 25.2028 27.7819 25.3682C27.6714 25.5336 27.5143 25.6625 27.3306 25.7386C27.1468 25.8148 26.9446 25.8347 26.7495 25.7959C26.5544 25.7571 26.3753 25.6613 26.2346 25.5206C26.094 25.38 25.9982 25.2008 25.9594 25.0057C25.9206 24.8106 25.9405 24.6083 26.0166 24.4246C26.0927 24.2408 26.2216 24.0837 26.387 23.9732C26.5524 23.8627 26.7468 23.8037 26.9457 23.8037C27.2124 23.8037 27.4682 23.9097 27.6568 24.0983C27.8454 24.2869 27.9514 24.5427 27.9514 24.8095ZM28.2866 18.5596C28.2585 18.7145 28.1767 18.8546 28.0556 18.9552C27.9346 19.0559 27.782 19.1108 27.6245 19.1102H17.6618L16.6871 13.7462H29.159L28.2866 18.5596Z" fill="#2D2273"/>
</g>
<defs>
<filter id="filter0_d_1026_4649" x="-0.000325441" y="0" width="43.1667" height="50.1667" filterUnits="userSpaceOnUse" color-interpolation-filters="sRGB">
<feFlood flood-opacity="0" result="BackgroundImageFix"/>
<feColorMatrix in="SourceAlpha" type="matrix" values="0 0 0 0 0 0 0 0 0 0 0 0 0 0 0 0 0 0 127 0" result="hardAlpha"/>
<feOffset dy="3.58333"/>
<feGaussianBlur stdDeviation="1.79167"/>
<feComposite in2="hardAlpha" operator="out"/>
<feColorMatrix type="matrix" values="0 0 0 0 0 0 0 0 0 0 0 0 0 0 0 0 0 0 0.45 0"/>
<feBlend mode="normal" in2="BackgroundImageFix" result="effect1_dropShadow_1026_4649"/>
<feBlend mode="normal" in="SourceGraphic" in2="effect1_dropShadow_1026_4649" result="shape"/>
</filter>
</defs>
</svg>
