<svg width="44" height="43" viewBox="0 0 44 43" fill="none" xmlns="http://www.w3.org/2000/svg">
<g>
<path d="M21.494 0C16.0517 0.060825 10.9262 2.50698 7.53677 6.65952C4.17091 10.7282 2.85963 16.0578 3.96866 21.1737C4.68329 24.4599 6.32324 27.4863 8.70479 29.9144C11.6392 32.954 14.646 36.0248 17.5534 38.9971C18.7889 40.2579 20.026 41.5188 21.2614 42.7781C21.3609 42.903 21.5058 42.9819 21.6659 43C21.8092 42.9638 21.9306 42.8718 22.003 42.7452L22.0553 42.6712L22.116 42.6038C24.2194 40.3023 26.4408 38.065 28.5898 35.895C30.8045 33.6592 33.095 31.3479 35.2322 28.9905C39.8284 23.9125 40.8683 16.7976 37.9441 10.4142C34.9642 3.94869 28.8224 0.0476737 21.494 0Z" fill="white"/>
<path d="M12.5321 19.9529C12.5321 17.8331 13.7975 16.0222 15.582 15.2999L14.7827 12.3765C13.7208 12.3349 12.8067 11.5651 12.5472 10.4805C12.4762 10.1835 12.649 9.88262 12.9331 9.80838C13.2173 9.73414 13.5053 9.91471 13.5763 10.2117C13.7251 10.8335 14.2598 11.2698 14.8732 11.2698H18.7192C19.0121 11.2698 19.2495 11.5179 19.2495 11.824C19.2495 12.1301 19.0121 12.3783 18.7192 12.3783H18.0079L18.7804 15.2033C19.0449 15.291 19.3027 15.4024 19.5507 15.5368L23.6872 17.7781L25.0965 12.3783H24.3233L23.417 13.9567C23.2663 14.2191 22.9405 14.3042 22.6893 14.1468C22.4381 13.9893 22.3567 13.6488 22.5074 13.3864L23.5682 11.5389L23.5774 11.5234C23.6748 11.3657 23.8425 11.2698 24.023 11.2698H25.7887C25.7894 11.2698 25.7902 11.2698 25.7909 11.2698H27.9124C27.913 11.2698 27.9136 11.2698 27.9141 11.2698H28.6549L29.6367 9.34626C29.7745 9.07618 30.0958 8.97401 30.3543 9.11804C30.6127 9.26209 30.7105 9.59783 30.5726 9.86792L29.4412 12.0849C29.349 12.2655 29.1691 12.3783 28.9732 12.3783H28.3175L26.5091 19.3072L26.9698 19.5568C27.8747 20.0471 28.4428 21.0236 28.4428 22.0888C28.4428 23.6641 27.2208 24.941 25.7134 24.941H25.2348L25.7651 26.0495H30.1047C30.3976 26.0495 30.6351 26.2976 30.6351 26.6037C30.6351 26.9098 30.3976 27.158 30.1047 27.158H25.4482C25.4414 27.1581 25.4347 27.1581 25.4279 27.158H14.8403C14.833 27.1581 14.8258 27.1581 14.8186 27.158H13.0618C12.7688 27.158 12.5314 26.9098 12.5314 26.6037C12.5314 26.2976 12.7688 26.0495 13.0618 26.0495H14.5019L15.2616 24.4618C13.6479 23.6616 12.5321 21.9434 12.5321 19.9529ZM15.6879 26.0495H24.5791L24.0488 24.941H17.3055C16.9514 24.941 16.6063 24.9006 16.2741 24.8242L15.6879 26.0495ZM16.9597 19.5321C17.1821 19.3329 17.5169 19.3598 17.7075 19.5922L18.684 20.7826C18.8188 20.5384 18.896 20.2551 18.896 19.9529C18.896 19.0346 18.1836 18.2902 17.3048 18.2902C16.4261 18.2902 15.7137 19.0346 15.7137 19.9529C15.7137 20.8712 16.4261 21.6156 17.3048 21.6156C17.5071 21.6156 17.7006 21.5761 17.8787 21.5041L16.9021 20.3136C16.7115 20.0812 16.7372 19.7313 16.9597 19.5321ZM25.7909 21.6156C26.0838 21.6156 26.3213 21.8637 26.3213 22.1698C26.3213 22.4759 26.0838 22.7241 25.7909 22.7241H23.6694C23.3765 22.7241 23.139 22.4759 23.139 22.1698C23.139 21.8637 23.3765 21.6156 23.6694 21.6156H25.7909ZM24.6505 18.3001L25.5459 18.7852L27.218 12.3783H26.196L24.6505 18.3001ZM16.6081 15.0177C16.6845 15.006 16.7616 14.9962 16.8392 14.9883C16.8423 14.988 16.8453 14.9877 16.8484 14.9874C16.8671 14.9855 16.8857 14.9838 16.9044 14.9822C16.9113 14.9816 16.9182 14.981 16.9251 14.9804C16.9335 14.9797 16.9418 14.979 16.9502 14.9784C16.961 14.9776 16.9717 14.9768 16.9824 14.976C16.9945 14.9752 17.0065 14.9744 17.0186 14.9736C17.0271 14.9731 17.0355 14.9726 17.0439 14.9722C17.0523 14.9717 17.0607 14.9712 17.0691 14.9708C17.0839 14.97 17.0987 14.9693 17.1135 14.9687C17.1203 14.9684 17.1271 14.9682 17.1339 14.9679C17.1474 14.9674 17.161 14.967 17.1746 14.9666C17.1781 14.9665 17.1817 14.9664 17.1852 14.9663C17.203 14.9658 17.2208 14.9655 17.2386 14.9652C17.2426 14.9651 17.2466 14.9651 17.2506 14.9651C17.2689 14.9649 17.2872 14.9647 17.3055 14.9647L17.3428 14.9649C17.3621 14.965 17.3814 14.9653 17.4006 14.9657C17.4183 14.9661 17.436 14.9665 17.4536 14.9671C17.4559 14.9671 17.4582 14.9672 17.4605 14.9673C17.4954 14.9685 17.5301 14.97 17.5649 14.9719C17.5661 14.972 17.5673 14.9721 17.5685 14.9722C17.5839 14.973 17.5993 14.974 17.6147 14.975L16.9047 12.3783H15.8864L16.6081 15.0177ZM13.5929 19.9529C13.5929 21.6725 14.6635 23.1307 16.1462 23.6396C16.1538 23.642 16.1614 23.6445 16.1689 23.6473C16.5272 23.7675 16.9091 23.8325 17.3055 23.8325H24.3664C24.3726 23.8324 24.3787 23.8324 24.3848 23.8325H25.7134C26.635 23.8325 27.3821 23.0518 27.3821 22.0888C27.382 21.4376 27.0348 20.8406 26.4815 20.5408L25.6424 20.0861C25.6418 20.0858 25.6412 20.0855 25.6406 20.0852L19.0625 16.5209C18.7989 16.3781 18.5212 16.2684 18.2353 16.1933C18.2315 16.1924 18.2278 16.1916 18.224 16.1906C17.9614 16.1226 17.6922 16.0836 17.4207 16.075C17.4177 16.0749 17.4148 16.0749 17.4119 16.0748C17.3765 16.0737 17.341 16.0732 17.3055 16.0732C17.2912 16.0732 17.277 16.0733 17.2627 16.0735C17.2597 16.0735 17.2566 16.0735 17.2535 16.0736C17.2399 16.0738 17.2264 16.074 17.2128 16.0744C17.2088 16.0745 17.2048 16.0746 17.2008 16.0747C17.1913 16.075 17.1818 16.0753 17.1723 16.0757C17.1671 16.0759 17.1618 16.0761 17.1566 16.0763C17.1436 16.0768 17.1307 16.0774 17.1177 16.0781C17.1146 16.0783 17.1116 16.0784 17.1085 16.0786C17.096 16.0793 17.0836 16.08 17.0712 16.0808C17.0694 16.0809 17.0677 16.081 17.066 16.0811C17.0523 16.082 17.0386 16.0831 17.0249 16.0841C17.0214 16.0844 17.018 16.0847 17.0145 16.085C17.0007 16.0861 16.9869 16.0872 16.9731 16.0885C16.9724 16.0886 16.9716 16.0887 16.9708 16.0888C16.9593 16.0898 16.9479 16.091 16.9364 16.0922C16.9304 16.0928 16.9244 16.0934 16.9184 16.0941C16.907 16.0953 16.8956 16.0966 16.8842 16.0979C16.8789 16.0986 16.8736 16.0992 16.8683 16.0999C16.8602 16.1008 16.8522 16.1019 16.8441 16.1029C16.8384 16.1037 16.8327 16.1044 16.827 16.1052C16.8154 16.1067 16.8039 16.1083 16.7923 16.11C16.7871 16.1107 16.7818 16.1115 16.7766 16.1123C16.7518 16.116 16.7271 16.1199 16.7024 16.1242C16.6975 16.125 16.6925 16.1259 16.6875 16.1267C16.6644 16.1308 16.6415 16.1351 16.6185 16.1396C16.6105 16.1411 16.6025 16.1427 16.5945 16.1443C16.5844 16.1463 16.5743 16.1485 16.5641 16.1506C16.5586 16.1518 16.553 16.153 16.5474 16.1542C16.5385 16.1561 16.5297 16.1581 16.5208 16.1601C16.5168 16.161 16.5127 16.1619 16.5086 16.1628C16.4975 16.1653 16.4864 16.168 16.4754 16.1706C16.4688 16.1722 16.4623 16.1737 16.4557 16.1753C16.4325 16.181 16.4093 16.187 16.3862 16.1931C14.7804 16.6206 13.5929 18.1418 13.5929 19.9529ZM19.9567 19.9529C19.9567 20.594 19.7483 21.1842 19.3985 21.6537L19.6703 21.9851H20.4871C20.78 21.9851 21.0175 22.2332 21.0175 22.5393C21.0175 22.8454 20.78 23.0936 20.4871 23.0936H19.4263C19.2715 23.0936 19.1244 23.0229 19.0236 22.9L18.5934 22.3755C18.2119 22.5975 17.7725 22.7241 17.3048 22.7241C15.8402 22.7241 14.6529 21.4834 14.6529 19.9529C14.6529 18.4224 15.8402 17.1817 17.3048 17.1817C18.7694 17.1817 19.9567 18.4224 19.9567 19.9529Z" fill="#2D2273"/>
</g>
<defs>
<filter id="filter0_d_1026_4632" x="-0.000325441" y="0" width="43.1667" height="50.1667" filterUnits="userSpaceOnUse" color-interpolation-filters="sRGB">
<feFlood flood-opacity="0" result="BackgroundImageFix"/>
<feColorMatrix in="SourceAlpha" type="matrix" values="0 0 0 0 0 0 0 0 0 0 0 0 0 0 0 0 0 0 127 0" result="hardAlpha"/>
<feOffset dy="3.58333"/>
<feGaussianBlur stdDeviation="1.79167"/>
<feComposite in2="hardAlpha" operator="out"/>
<feColorMatrix type="matrix" values="0 0 0 0 0 0 0 0 0 0 0 0 0 0 0 0 0 0 0.45 0"/>
<feBlend mode="normal" in2="BackgroundImageFix" result="effect1_dropShadow_1026_4632"/>
<feBlend mode="normal" in="SourceGraphic" in2="effect1_dropShadow_1026_4632" result="shape"/>
</filter>
</defs>
</svg>
