<svg width="44" height="43" viewBox="43" fill="none" xmlns="http://www.w3.org/2000/svg">
<g>
<path d="M21.494 0C16.0517 0.060825 10.9262 2.50698 7.53677 6.65952C4.17091 10.7282 2.85963 16.0578 3.96866 21.1737C4.68329 24.4599 6.32324 27.4863 8.70479 29.9144C11.6392 32.954 14.646 36.0248 17.5534 38.9971C18.7889 40.2579 20.026 41.5188 21.2614 42.7781C21.3609 42.903 21.5058 42.9819 21.6659 43C21.8092 42.9638 21.9306 42.8718 22.003 42.7452L22.0553 42.6712L22.116 42.6038C24.2194 40.3023 26.4408 38.065 28.5898 35.895C30.8045 33.6592 33.095 31.3479 35.2322 28.9905C39.8284 23.9125 40.8683 16.7976 37.9441 10.4142C34.9642 3.94869 28.8224 0.0476737 21.494 0Z" fill="white"/>
<path d="M18.1939 15.343C17.9027 15.343 17.6666 15.5791 17.6666 15.8703V16.4351C17.6925 17.1341 18.6956 17.1336 18.7213 16.4351V15.8703C18.7213 15.5791 18.4852 15.343 18.1939 15.343Z" fill="#2D2273"/>
<path d="M18.1939 18.1672C17.9027 18.1672 17.6666 18.4033 17.6666 18.6945V19.2594C17.6925 19.9583 18.6956 19.9578 18.7213 19.2594V18.6945C18.7213 18.4033 18.4852 18.1672 18.1939 18.1672Z" fill="#2D2273"/>
<path d="M18.1939 20.9914C17.9027 20.9914 17.6666 21.2275 17.6666 21.5187V22.0836C17.6925 22.7825 18.6956 22.782 18.7213 22.0836V21.5187C18.7213 21.2275 18.4852 20.9914 18.1939 20.9914Z" fill="#2D2273"/>
<path d="M22.7127 15.343C22.4214 15.343 22.1853 15.5791 22.1853 15.8703V16.4351C22.2113 17.1341 23.2143 17.1336 23.24 16.4351V15.8703C23.24 15.5791 23.0039 15.343 22.7127 15.343Z" fill="#2D2273"/>
<path d="M22.7127 18.1672C22.4214 18.1672 22.1853 18.4033 22.1853 18.6945V19.2594C22.2113 19.9583 23.2143 19.9578 23.24 19.2594V18.6945C23.24 18.4033 23.0039 18.1672 22.7127 18.1672Z" fill="#2D2273"/>
<path d="M20.4533 15.343C20.1621 15.343 19.926 15.5791 19.926 15.8703V16.4351C19.9519 17.1341 20.955 17.1336 20.9807 16.4351V15.8703C20.9807 15.5791 20.7446 15.343 20.4533 15.343Z" fill="#2D2273"/>
<path d="M20.4533 18.1672C20.1621 18.1672 19.926 18.4033 19.926 18.6945V19.2594C19.9519 19.9583 20.955 19.9578 20.9807 19.2594V18.6945C20.9807 18.4033 20.7446 18.1672 20.4533 18.1672Z" fill="#2D2273"/>
<path d="M24.9721 16.9625C25.2633 16.9625 25.4994 16.7264 25.4994 16.4351V15.8703C25.4735 15.1714 24.4704 15.1719 24.4447 15.8703V16.4351C24.4447 16.7264 24.6808 16.9625 24.9721 16.9625Z" fill="#2D2273"/>
<path d="M24.9721 19.7867C25.2633 19.7867 25.4994 19.5506 25.4994 19.2594V18.6945C25.4735 17.9956 24.4704 17.9961 24.4447 18.6945V19.2594C24.4447 19.5506 24.6808 19.7867 24.9721 19.7867Z" fill="#2D2273"/>
<path d="M24.9721 22.6109C25.2633 22.6109 25.4994 22.3748 25.4994 22.0836V21.5187C25.4735 20.8198 24.4704 20.8203 24.4447 21.5187V22.0836C24.4447 22.3748 24.6808 22.6109 24.9721 22.6109Z" fill="#2D2273"/>
<path d="M30.0557 17.6023H27.7588V12.1988C27.7588 11.9076 27.5227 11.6715 27.2315 11.6715H24.6521V9.93946C24.6521 9.64823 24.416 9.41212 24.1248 9.41212H23.24V8.52734C23.24 8.23611 23.0039 8 22.7127 8H20.4533C20.1621 8 19.926 8.23611 19.926 8.52734V9.41212H19.0412C18.75 9.41212 18.5139 9.64823 18.5139 9.93946V11.6715H15.9346C15.6433 11.6715 15.4072 11.9076 15.4072 12.1989V17.6024H13.1104C12.8191 17.6024 12.583 17.8385 12.583 18.1297V25.4727C12.583 25.7639 12.8191 26 13.1104 26H30.0557C30.3469 26 30.583 25.7639 30.583 25.4727V18.1297C30.583 17.8384 30.3469 17.6023 30.0557 17.6023ZM15.4072 24.9453H13.6377V18.657H15.4072V24.9453ZM19.5686 10.4668H20.4533C20.7446 10.4668 20.9807 10.2307 20.9807 9.93946V9.05469H22.1854V9.93946C22.1854 10.2307 22.4215 10.4668 22.7127 10.4668H23.5975V11.6715H22.7127C22.4214 11.6715 22.1853 11.9076 22.1853 12.1989V13.0836H20.9806V12.1988C20.9806 11.9076 20.7445 11.6715 20.4533 11.6715H19.5686V10.4668ZM22.1853 24.9453H20.9806V22.0461H22.1853V24.9453ZM26.7041 24.9453H23.2401V21.5187C23.2401 21.2275 23.004 20.9914 22.7127 20.9914H20.4533C20.1621 20.9914 19.926 21.2275 19.926 21.5187V24.9453H16.4619V12.7262H19.926V13.6109C19.926 13.9022 20.1621 14.1383 20.4533 14.1383H22.7127C23.004 14.1383 23.2401 13.9022 23.2401 13.6109V12.7262H26.7041V24.9453ZM29.5283 24.9453H27.7588V18.657H29.5283V24.9453Z" fill="#2D2273"/>
</g>
<defs>
<filter id="filter0_d_1028_4697" x="-0.000325441" y="0" width="43.1667" height="50.1667" filterUnits="userSpaceOnUse" color-interpolation-filters="sRGB">
<feFlood flood-opacity="0" result="BackgroundImageFix"/>
<feColorMatrix in="SourceAlpha" type="matrix" values="0 0 0 0 0 0 0 0 0 0 0 0 0 0 0 0 0 0 127 0" result="hardAlpha"/>
<feOffset dy="3.58333"/>
<feGaussianBlur stdDeviation="1.79167"/>
<feComposite in2="hardAlpha" operator="out"/>
<feColorMatrix type="matrix" values="0 0 0 0 0 0 0 0 0 0 0 0 0 0 0 0 0 0 0.45 0"/>
<feBlend mode="normal" in2="BackgroundImageFix" result="effect1_dropShadow_1028_4697"/>
<feBlend mode="normal" in="SourceGraphic" in2="effect1_dropShadow_1028_4697" result="shape"/>
</filter>
</defs>
</svg>
