<svg width="51" height="62" viewBox="0 0 51 62" fill="none" xmlns="http://www.w3.org/2000/svg">
<path d="M25.0092 0C17.4101 0.0870762 10.2534 3.58895 5.52065 9.53367C0.820893 15.3584 -1.01006 22.9881 0.538484 30.3119C1.53633 35.0164 3.8262 39.349 7.15157 42.825C11.2489 47.1765 15.4473 51.5726 19.507 55.8276C21.232 57.6327 22.9594 59.4377 24.6845 61.2405C24.8233 61.4193 25.0257 61.5323 25.2493 61.5582C25.4493 61.5064 25.6188 61.3746 25.72 61.1934L25.7929 61.0875L25.8777 60.991C28.8147 57.6962 31.9165 54.4932 34.9171 51.3867C38.0095 48.1861 41.2078 44.8772 44.1919 41.5024C50.6096 34.2327 52.0617 24.0471 47.9785 14.9089C43.8177 5.65289 35.2419 0.0682489 25.0092 0Z" fill="#492F87"/>
<rect x="4.7063" y="4" width="40.714" height="40.714" rx="20.357" fill="white"/>
<path d="M29.3882 27.1876C29.965 27.1876 30.5013 26.8352 30.8598 26.2208C31.4703 25.2143 31.4702 23.4948 30.8598 22.4882C30.134 21.2058 28.6423 21.206 27.9167 22.4882C27.3062 23.4948 27.3062 25.2143 27.9167 26.2208C28.2751 26.8352 28.8115 27.1876 29.3882 27.1876ZM29.3882 22.8663C29.5678 22.8663 29.9762 23.4286 29.9762 24.3546C29.9762 25.2806 29.5678 25.8428 29.3882 25.8428C29.2086 25.8428 28.8003 25.2806 28.8003 24.3546C28.8003 23.4286 29.2086 22.8663 29.3882 22.8663Z" fill="#492F87"/>
<path d="M26.233 21.9406C26.0937 21.5963 25.7017 21.4302 25.3575 21.5696C25.2667 21.6059 23.1343 22.4886 23.1343 25.0747C23.1343 26.299 23.9472 27.1875 25.0671 27.1875C27.5745 27.0981 27.6504 23.5266 25.1574 23.3241C25.4935 22.9757 25.8342 22.8279 25.8621 22.8161C26.2063 22.6768 26.3724 22.2848 26.233 21.9406ZM25.655 25.2548C25.6548 25.9597 24.4799 26.1848 24.4791 25.0748C24.4791 24.9846 24.4831 24.8975 24.4905 24.8136C24.6809 24.7381 24.9081 24.6669 25.0671 24.6669C25.3912 24.6669 25.655 24.9306 25.655 25.2548Z" fill="#492F87"/>
<path d="M20.7279 25.8428C20.4484 25.8428 20.2708 25.5018 20.2691 25.4983C20.1075 25.164 19.7055 25.0239 19.3711 25.1855C19.0368 25.347 18.8967 25.7491 19.0583 26.0834C20.5676 28.7332 24.119 26.1469 21.6495 23.5503L22.3642 22.5974C22.517 22.3936 22.5415 22.121 22.4277 21.8932C22.3138 21.6654 22.0809 21.5215 21.8262 21.5215H19.6656C18.7744 21.5546 18.7751 22.8335 19.6656 22.8663H20.4814L20.208 23.2309C20.1005 23.3742 20.0536 23.5538 20.0796 23.7311C20.1056 23.9084 20.2002 24.0672 20.3443 24.1736C20.5543 24.3313 21.1538 24.8982 21.1538 25.4165C21.1538 25.6515 20.9627 25.8428 20.7279 25.8428Z" fill="#492F87"/>
<path d="M35.2539 24.3543C36.8306 21.1281 37.1986 16.7741 34.8484 14.5677C33.4152 13.1325 31.2013 12.586 28.6143 13.0286C28.2483 13.0912 28.0023 13.4387 28.065 13.8047C28.1276 14.1708 28.4751 14.4167 28.841 14.3541C30.9856 13.9873 32.7812 14.4006 33.8974 15.5183C35.5413 17.0463 35.4805 20.2288 34.4462 22.8054C32.0142 18.5145 27.0228 14.3391 22.5269 13.2506C19.4928 12.4649 16.9196 12.9341 15.2818 14.5714C13.8446 16.0066 13.2972 18.2216 13.7404 20.8084C13.8031 21.1744 14.1509 21.4202 14.5167 21.3575C14.8827 21.2948 15.1285 20.9473 15.0658 20.5814C14.6984 18.4371 15.1126 16.6406 16.2324 15.5225C17.5198 14.2353 19.6356 13.8907 22.1898 14.5521C26.6379 15.6226 31.641 20.0344 33.7612 24.3544C32.0358 27.8212 28.5309 31.3257 25.0648 33.0512C23.3237 32.1664 21.6092 30.9079 20.06 29.3589C19.3287 28.6273 18.6485 27.8421 18.0384 27.0252C17.8163 26.7277 17.3949 26.6666 17.0974 26.8887C16.7999 27.1108 16.7388 27.5321 16.9609 27.8296C17.6095 28.698 18.3321 29.5324 19.1091 30.3095C20.4788 31.679 21.9759 32.8382 23.516 33.7363C20.9402 34.7705 17.7609 34.8299 16.2349 33.1875C12.8862 29.3916 16.569 22.8011 20.0621 19.3482C20.4163 18.9937 20.7836 18.652 21.1609 18.3241L21.0639 19.2251C21.0242 19.5943 21.2913 19.9259 21.6604 19.9656C21.6848 19.9682 21.7091 19.9695 21.7331 19.9695C22.0721 19.9695 22.3636 19.7137 22.4007 19.369L22.6707 16.8591C22.6898 16.6817 22.6377 16.504 22.5257 16.3651C22.4137 16.2262 22.2512 16.1376 22.0739 16.1186L19.5645 15.8499C19.1956 15.8108 18.864 16.0777 18.8245 16.4469C18.785 16.8161 19.0522 17.1475 19.4214 17.187L20.3098 17.2822C19.8978 17.6388 19.4971 18.0111 19.1112 18.3974C15.0272 22.4228 11.2915 29.7253 15.2841 34.1386C17.86 36.6835 21.9883 35.9689 25.0652 34.5441C33.3591 38.4412 39.2819 33.0807 35.2539 24.3543ZM33.8971 33.1881C32.3698 34.8309 29.1897 34.7703 26.6139 33.7364C29.6819 31.9689 32.6791 28.9719 34.4464 25.9034C35.4808 28.4799 35.5405 31.6615 33.8971 33.1881Z" fill="#492F87"/>
</svg>
