<svg width="51" height="62" viewBox="0 0 51 62" fill="none" xmlns="http://www.w3.org/2000/svg">
<path d="M25.01 0C17.4106 0.0870788 10.2537 3.58906 5.52082 9.53395C0.820918 15.3588 -1.01009 22.9888 0.5385 30.3128C1.53638 35.0174 3.82631 39.3502 7.15178 42.8263C11.2492 47.1779 15.4478 51.5742 19.5076 55.8293C21.2327 57.6344 22.9601 59.4395 24.6852 61.2423C24.8241 61.4211 25.0265 61.5341 25.25 61.56C25.4501 61.5082 25.6195 61.3764 25.7207 61.1952L25.7937 61.0893L25.8784 60.9928C28.8156 57.6979 31.9175 54.4949 34.9181 51.3883C38.0106 48.1875 41.209 44.8785 44.1932 41.5036C50.6112 34.2337 52.0633 24.0479 47.98 14.9093C43.819 5.65306 35.2429 0.0682509 25.01 0Z" fill="#492F87"/>
<rect x="4.7063" y="4" width="40.7152" height="40.7152" rx="20.3576" fill="white"/>
<path d="M35.8698 29.424H35.0627V27.9444C35.0627 27.5729 34.7616 27.2718 34.3902 27.2718C34.0187 27.2718 33.7176 27.5729 33.7176 27.9444V29.424H31.4757V13.5515C31.4757 13.18 31.1746 12.8789 30.8031 12.8789H19.3247C18.9532 12.8789 18.6521 13.18 18.6521 13.5515V29.424H16.4102V27.9444C16.4102 27.5729 16.1091 27.2718 15.7377 27.2718C15.3662 27.2718 15.0651 27.5729 15.0651 27.9444V29.424H14.258C13.8866 29.424 13.5854 29.7252 13.5854 30.0966V35.1633C13.5854 35.5347 13.8866 35.8358 14.258 35.8358H35.8698C36.2412 35.8358 36.5424 35.5347 36.5424 35.1633V30.0966C36.5424 29.7252 36.2412 29.424 35.8698 29.424ZM14.9306 30.7692H18.6521V34.4907H14.9306V30.7692ZM23.2256 34.4907V32.9214H26.9023V34.4907H23.2256ZM28.2474 34.4907V32.2488C28.2474 31.8774 27.9463 31.5762 27.5748 31.5762H22.553C22.1816 31.5762 21.8804 31.8774 21.8804 32.2488V34.4907H19.9972V14.224H30.1306V34.4907H28.2474ZM35.1972 34.4907H31.4757V30.7692H35.1972V34.4907Z" fill="#492F87"/>
<path d="M27.9335 15.7933H22.1943C21.8228 15.7933 21.5217 16.0945 21.5217 16.4659C21.5217 16.8373 21.8228 17.1385 22.1943 17.1385H27.9335C28.3049 17.1385 28.6061 16.8373 28.6061 16.4659C28.6061 16.0945 28.3049 15.7933 27.9335 15.7933Z" fill="#492F87"/>
<path d="M23.2704 18.663H22.553C22.1815 18.663 21.8804 18.9641 21.8804 19.3355C21.8804 19.707 22.1815 20.0081 22.553 20.0081H23.2704C23.6418 20.0081 23.9429 19.707 23.9429 19.3355C23.9429 18.9641 23.6418 18.663 23.2704 18.663Z" fill="#492F87"/>
<path d="M27.5748 18.663H26.8574C26.486 18.663 26.1848 18.9641 26.1848 19.3355C26.1848 19.707 26.486 20.0081 26.8574 20.0081H27.5748C27.9462 20.0081 28.2474 19.707 28.2474 19.3355C28.2474 18.9641 27.9462 18.663 27.5748 18.663Z" fill="#492F87"/>
<path d="M23.2704 21.5326H22.553C22.1815 21.5326 21.8804 21.8337 21.8804 22.2051C21.8804 22.5766 22.1815 22.8777 22.553 22.8777H23.2704C23.6418 22.8777 23.9429 22.5766 23.9429 22.2051C23.9429 21.8337 23.6418 21.5326 23.2704 21.5326Z" fill="#492F87"/>
<path d="M27.5748 21.5326H26.8574C26.486 21.5326 26.1848 21.8337 26.1848 22.2051C26.1848 22.5766 26.486 22.8777 26.8574 22.8777H27.5748C27.9462 22.8777 28.2474 22.5766 28.2474 22.2051C28.2474 21.8337 27.9462 21.5326 27.5748 21.5326Z" fill="#492F87"/>
<path d="M23.2704 24.4022H22.553C22.1815 24.4022 21.8804 24.7033 21.8804 25.0748C21.8804 25.4462 22.1815 25.7473 22.553 25.7473H23.2704C23.6418 25.7473 23.9429 25.4462 23.9429 25.0748C23.9429 24.7033 23.6418 24.4022 23.2704 24.4022Z" fill="#492F87"/>
<path d="M27.5748 24.4022H26.8574C26.486 24.4022 26.1848 24.7033 26.1848 25.0748C26.1848 25.4462 26.486 25.7473 26.8574 25.7473H27.5748C27.9462 25.7473 28.2474 25.4462 28.2474 25.0748C28.2474 24.7033 27.9462 24.4022 27.5748 24.4022Z" fill="#492F87"/>
<path d="M23.2704 27.2718H22.553C22.1815 27.2718 21.8804 27.5729 21.8804 27.9444C21.8804 28.3158 22.1815 28.6169 22.553 28.6169H23.2704C23.6418 28.6169 23.9429 28.3158 23.9429 27.9444C23.9429 27.5729 23.6418 27.2718 23.2704 27.2718Z" fill="#492F87"/>
<path d="M27.5748 27.2718H26.8574C26.486 27.2718 26.1848 27.5729 26.1848 27.9444C26.1848 28.3158 26.486 28.6169 26.8574 28.6169H27.5748C27.9462 28.6169 28.2474 28.3158 28.2474 27.9444C28.2474 27.5729 27.9462 27.2718 27.5748 27.2718Z" fill="#492F87"/>
</svg>
