<svg width="111" height="45" viewBox="0 0 111 45" fill="none" xmlns="http://www.w3.org/2000/svg">
<rect width="111" height="45" fill="#492F87"/>
<path d="M31.1172 27.168H30.6342C25.5102 27.168 24.2712 25.677 24.2712 20.931V18.789C24.2712 14.043 25.5102 12.552 30.6342 12.552H31.1172C36.2412 12.552 37.4802 14.043 37.4802 18.789V20.931C37.4802 25.677 36.2412 27.168 31.1172 27.168ZM30.6972 24.27H31.0542C33.2172 24.27 33.7422 23.64 33.7422 20.868V18.81C33.7422 16.038 33.2172 15.408 31.0542 15.408H30.6972C28.5342 15.408 28.0092 16.038 28.0092 18.81V20.868C28.0092 23.64 28.5342 24.27 30.6972 24.27ZM43.2949 19.272V27H39.9769V19.272H38.6749V16.92H39.9769V16.164C39.9769 13.476 40.9849 12.573 43.6309 12.573C44.2819 12.573 44.9539 12.615 45.4789 12.678V15.009C45.2269 14.988 44.8909 14.967 44.5759 14.967C43.5469 14.967 43.2949 15.177 43.2949 16.353V16.92H45.5629V19.272H43.2949ZM49.9939 16.92V27H46.6549V16.92H49.9939ZM49.9939 12.72V15.324H46.6549V12.72H49.9939ZM57.0592 27.168H56.5762C52.9222 27.168 51.9142 26.076 51.9142 22.527V21.372C51.9142 17.823 52.9852 16.752 56.6602 16.752H57.1432C60.6292 16.752 61.5532 17.802 61.5532 20.259V20.742H58.5082V20.511C58.5082 19.566 58.1722 19.23 57.1222 19.23H56.7652C55.4842 19.23 55.2532 19.671 55.2532 21.372V22.527C55.2532 24.228 55.5472 24.648 56.8282 24.648H57.2062C58.2562 24.648 58.4872 24.312 58.4872 23.325V23.115H61.5532V23.493C61.5532 26.16 60.6502 27.168 57.0592 27.168ZM66.7645 16.92V27H63.4255V16.92H66.7645ZM66.7645 12.72V15.324H63.4255V12.72H66.7645ZM79.0221 20.889V27H75.6831V21.267C75.6831 19.671 75.4731 19.314 74.1291 19.314H73.9611C72.6381 19.314 72.2811 19.797 72.2811 21.288V27H68.9421V16.92H72.2391V18.432H72.2601C72.7851 17.256 73.6881 16.752 75.2631 16.752H75.4101C78.2241 16.752 79.0221 17.676 79.0221 20.889ZM90.5308 21.162V27H87.3598V25.971H87.2968C86.8558 26.79 86.2258 27.168 84.6508 27.168H84.3148C81.6268 27.168 80.9128 26.391 80.9128 24.039V23.577C80.9128 21.351 81.8788 20.574 84.5248 20.574H84.6718C86.1208 20.574 86.8558 20.826 87.2758 21.372H87.3598V20.469C87.3598 19.188 87.2338 18.936 85.9108 18.936H85.6588C84.4618 18.936 84.2098 19.125 84.2098 19.629V19.902H81.1648V19.692C81.1648 17.298 82.1938 16.752 85.8268 16.752H86.2048C89.8798 16.752 90.5308 17.445 90.5308 21.162ZM85.6588 24.942H85.8268C87.1918 24.942 87.4018 24.711 87.4018 23.955V23.577C87.4018 22.8 87.2338 22.59 85.7848 22.59H85.5958C84.2098 22.59 83.9998 22.821 83.9998 23.577V23.955C83.9998 24.732 84.2308 24.942 85.6588 24.942ZM97.4161 27.168H96.8911C93.0691 27.168 92.3971 26.412 92.3971 24.333V23.871H95.4841V24.018C95.4841 24.753 95.6941 24.921 96.8911 24.921H97.3531C98.5081 24.921 98.7601 24.774 98.7601 24.102V23.976C98.7601 23.325 98.6341 23.01 96.3241 22.863C93.1321 22.653 92.4601 21.96 92.4601 19.86V19.65C92.4601 17.529 93.3631 16.752 96.4921 16.752H96.9331C100.818 16.752 101.511 17.382 101.511 19.545V19.818H98.5081V19.734C98.5081 19.125 98.3401 18.915 97.1851 18.915H96.8911C95.7151 18.915 95.5681 19.083 95.5681 19.65V19.797C95.5681 20.301 95.7571 20.448 97.4371 20.574C101.154 20.868 101.889 21.54 101.889 23.64V23.976C101.889 26.433 100.797 27.168 97.4161 27.168Z" fill="white"/>
</svg>
