<svg width="51" height="62" viewBox="0 0 51 62" fill="none" xmlns="http://www.w3.org/2000/svg">
<path d="M25.01 0C17.4106 0.0870788 10.2537 3.58906 5.52082 9.53395C0.820918 15.3588 -1.01009 22.9888 0.5385 30.3128C1.53638 35.0174 3.82631 39.3502 7.15178 42.8263C11.2492 47.1779 15.4478 51.5742 19.5076 55.8293C21.2327 57.6344 22.9601 59.4395 24.6852 61.2423C24.8241 61.4211 25.0265 61.5341 25.25 61.56C25.4501 61.5082 25.6195 61.3764 25.7207 61.1952L25.7937 61.0893L25.8784 60.9928C28.8156 57.6979 31.9175 54.4949 34.9181 51.3883C38.0106 48.1875 41.209 44.8785 44.1932 41.5036C50.6112 34.2337 52.0633 24.0479 47.98 14.9093C43.819 5.65306 35.2429 0.0682509 25.01 0Z" fill="#492F87"/>
<rect x="4.7063" y="4" width="40.7152" height="40.7152" rx="20.3576" fill="white"/>
<path d="M35.8698 18.3491H31.117V14.224H31.7896C32.161 14.224 32.4621 13.9229 32.4621 13.5515C32.4621 13.18 32.161 12.8789 31.7896 12.8789H18.3382C17.9668 12.8789 17.6657 13.18 17.6657 13.5515C17.6657 13.9229 17.9668 14.224 18.3382 14.224H19.0108V18.3491H14.258C13.8866 18.3491 13.5854 18.6502 13.5854 19.0217C13.5854 19.3931 13.8866 19.6942 14.258 19.6942H14.4822V35.1633C14.4822 35.5347 14.7833 35.8358 15.1548 35.8358H34.973C35.3445 35.8358 35.6456 35.5347 35.6456 35.1633V19.6942H35.8698C36.2412 19.6942 36.5424 19.3931 36.5424 19.0217C36.5424 18.6502 36.2412 18.3491 35.8698 18.3491ZM15.8273 33.1456H16.9483C17.3197 33.1456 17.6208 32.8444 17.6208 32.473C17.6208 32.1016 17.3197 31.8004 16.9483 31.8004H15.8273V30.4553H16.9483C17.3197 30.4553 17.6208 30.1542 17.6208 29.7827C17.6208 29.4113 17.3197 29.1102 16.9483 29.1102H15.8273V27.765H16.9483C17.3197 27.765 17.6208 27.4639 17.6208 27.0925C17.6208 26.721 17.3197 26.4199 16.9483 26.4199H15.8273V25.0748H16.9483C17.3197 25.0748 17.6208 24.7736 17.6208 24.4022C17.6208 24.0308 17.3197 23.7296 16.9483 23.7296H15.8273V22.3845H16.9483C17.3197 22.3845 17.6208 22.0834 17.6208 21.7119C17.6208 21.3405 17.3197 21.0394 16.9483 21.0394H15.8273V19.6942H19.0108V34.4907H15.8273V33.1456ZM20.3559 14.224H29.7719V34.4907H28.4267V29.7827C28.4267 29.4113 28.1256 29.1102 27.7542 29.1102H22.3736C22.0022 29.1102 21.7011 29.4113 21.7011 29.7827V34.4907H20.3559V14.224ZM23.0462 30.4553H24.3913V34.4907H23.0462V30.4553ZM25.7365 34.4907V30.4553H27.0816V34.4907H25.7365ZM34.3005 21.0394H33.1795C32.8081 21.0394 32.507 21.3405 32.507 21.7119C32.507 22.0834 32.8081 22.3845 33.1795 22.3845H34.3005V23.7296H33.1795C32.8081 23.7296 32.507 24.0308 32.507 24.4022C32.507 24.7736 32.8081 25.0748 33.1795 25.0748H34.3005V26.4199H33.1795C32.8081 26.4199 32.507 26.721 32.507 27.0925C32.507 27.4639 32.8081 27.765 33.1795 27.765H34.3005V29.1102H33.1795C32.8081 29.1102 32.507 29.4113 32.507 29.7827C32.507 30.1542 32.8081 30.4553 33.1795 30.4553H34.3005V31.8004H33.1795C32.8081 31.8004 32.507 32.1016 32.507 32.473C32.507 32.8444 32.8081 33.1456 33.1795 33.1456H34.3005V34.4907H31.117V19.6942H34.3005V21.0394Z" fill="#492F87"/>
<path d="M23.2704 22.3845C23.6418 22.3845 23.943 22.0834 23.943 21.7119V19.6943H26.1848V21.7119C26.1848 22.0834 26.486 22.3845 26.8574 22.3845C27.2289 22.3845 27.53 22.0834 27.53 21.7119V16.3314C27.53 15.96 27.2289 15.6589 26.8574 15.6589C26.486 15.6589 26.1848 15.96 26.1848 16.3314V18.3491H23.943V16.3314C23.943 15.96 23.6418 15.6589 23.2704 15.6589C22.899 15.6589 22.5978 15.96 22.5978 16.3314V21.7119C22.5978 22.0834 22.899 22.3845 23.2704 22.3845Z" fill="#492F87"/>
<path d="M22.3736 27.765H27.7542C28.1256 27.765 28.4267 27.4639 28.4267 27.0925C28.4267 26.721 28.1256 26.4199 27.7542 26.4199H22.3736C22.0022 26.4199 21.7011 26.721 21.7011 27.0925C21.7011 27.4639 22.0022 27.765 22.3736 27.765Z" fill="#492F87"/>
<path d="M22.3736 25.0748H27.7542C28.1256 25.0748 28.4267 24.7736 28.4267 24.4022C28.4267 24.0308 28.1256 23.7296 27.7542 23.7296H22.3736C22.0022 23.7296 21.7011 24.0308 21.7011 24.4022C21.7011 24.7736 22.0022 25.0748 22.3736 25.0748Z" fill="#492F87"/>
</svg>
