<svg width="111" height="45" viewBox="0 0 111 45" fill="none" xmlns="http://www.w3.org/2000/svg">
<rect width="111" height="45" fill="#492F87"/>
<path d="M38.7799 12.72V27H35.1049V21.309H30.0649V27H26.3899V12.72H30.0649V18.117H35.1049V12.72H38.7799ZM45.672 24.648H46.008C47.331 24.648 47.625 24.186 47.625 22.527V21.372C47.625 19.671 47.331 19.23 46.008 19.23H45.672C44.37 19.23 44.055 19.671 44.055 21.372V22.527C44.055 24.186 44.37 24.648 45.672 24.648ZM46.113 27.168H45.588C41.829 27.168 40.758 26.097 40.758 22.527V21.372C40.758 17.844 41.85 16.752 45.588 16.752H46.113C49.851 16.752 50.922 17.844 50.922 21.372V22.527C50.922 26.097 49.851 27.168 46.113 27.168ZM57.275 27.168H56.918C53.978 27.168 53.327 26.475 53.327 23.115V19.314H51.983V16.92H53.327V14.295H56.603V16.92H60.761V19.314H56.582V22.758C56.582 24.543 56.708 24.648 57.464 24.648H57.611C58.346 24.648 58.43 24.501 58.43 22.884V22.569H61.013V23.535C61.013 26.412 60.299 27.168 57.275 27.168ZM67.5202 27.168H66.9322C63.2782 27.168 62.2912 26.118 62.2912 22.527V21.372C62.2912 17.697 63.5302 16.752 66.8902 16.752H67.3312C70.9222 16.752 71.9722 17.676 71.9722 21.141V22.737H65.5042V23.199C65.5042 24.585 65.7562 24.837 67.1632 24.837H67.4572C68.7172 24.837 68.9692 24.648 68.9692 23.871V23.682H72.0142V23.913C72.0142 26.328 70.7542 27.168 67.5202 27.168ZM65.4832 20.805H68.9272V20.553C68.9272 19.293 68.6962 18.915 67.2682 18.915H67.1212C65.7142 18.915 65.4832 19.209 65.4832 20.805ZM77.2645 12.72V27H73.9255V12.72H77.2645ZM84.3981 27.168H83.8101C80.1561 27.168 79.1691 26.118 79.1691 22.527V21.372C79.1691 17.697 80.4081 16.752 83.7681 16.752H84.2091C87.8001 16.752 88.8501 17.676 88.8501 21.141V22.737H82.3821V23.199C82.3821 24.585 82.6341 24.837 84.0411 24.837H84.3351C85.5951 24.837 85.8471 24.648 85.8471 23.871V23.682H88.8921V23.913C88.8921 26.328 87.6321 27.168 84.3981 27.168ZM82.3611 20.805H85.8051V20.553C85.8051 19.293 85.5741 18.915 84.1461 18.915H83.9991C82.5921 18.915 82.3611 19.209 82.3611 20.805ZM95.5704 27.168H95.0454C91.2234 27.168 90.5514 26.412 90.5514 24.333V23.871H93.6384V24.018C93.6384 24.753 93.8484 24.921 95.0454 24.921H95.5074C96.6624 24.921 96.9144 24.774 96.9144 24.102V23.976C96.9144 23.325 96.7884 23.01 94.4784 22.863C91.2864 22.653 90.6144 21.96 90.6144 19.86V19.65C90.6144 17.529 91.5174 16.752 94.6464 16.752H95.0874C98.9724 16.752 99.6654 17.382 99.6654 19.545V19.818H96.6624V19.734C96.6624 19.125 96.4944 18.915 95.3394 18.915H95.0454C93.8694 18.915 93.7224 19.083 93.7224 19.65V19.797C93.7224 20.301 93.9114 20.448 95.5914 20.574C99.3084 20.868 100.043 21.54 100.043 23.64V23.976C100.043 26.433 98.9514 27.168 95.5704 27.168Z" fill="white"/>
</svg>
