<svg width="74" height="91" viewBox="0 0 74 91" fill="none" xmlns="http://www.w3.org/2000/svg">
<path d="M36.7436 0C25.5789 0.127933 15.0643 5.2729 8.11096 14.0069C1.20606 22.5645 -1.48398 33.7742 0.791142 44.5344C2.25718 51.4462 5.62146 57.8117 10.5071 62.9186C16.5268 69.3118 22.6953 75.7707 28.6597 82.0221C31.1941 84.6741 33.732 87.3261 36.2665 89.9746C36.4705 90.2374 36.7678 90.4034 37.0963 90.4414C37.3902 90.3653 37.6392 90.1717 37.7879 89.9055L37.895 89.7499L38.0195 89.6081C42.3346 84.7674 46.8918 80.0616 51.3003 75.4975C55.8436 70.7951 60.5426 65.9337 64.9268 60.9754C74.3558 50.2948 76.4892 35.3301 70.4902 21.9041C64.3771 8.30524 51.7775 0.100271 36.7436 0Z" fill="#492F87"/>
<rect x="6.91455" y="5.87695" width="59.8171" height="59.8171" rx="29.9086" fill="white"/>
<path d="M22.8611 33.8026C23.4263 33.261 24.1073 32.9902 24.9043 32.9902C25.7012 32.9902 26.3833 33.261 26.9402 33.8026C27.5053 34.3441 27.7843 35.0026 27.7843 35.7841C27.7843 36.5657 27.5053 37.2314 26.9484 37.7739C26.3915 38.3083 25.7104 38.5791 24.9053 38.5791C24.1001 38.5791 23.4273 38.3083 22.8621 37.7739C22.3052 37.2324 22.0262 36.5667 22.0262 35.7841C22.0262 35.0016 22.3052 34.3441 22.8621 33.8026H22.8611ZM23.7052 37.0078C24.0304 37.3329 24.4324 37.495 24.9053 37.495C25.3781 37.495 25.772 37.3329 26.0971 36.9996C26.4304 36.6662 26.5925 36.256 26.5925 35.7841C26.5925 35.3123 26.4304 34.9093 26.1053 34.5769C25.7802 34.2436 25.3781 34.0733 24.9053 34.0733C24.4324 34.0733 24.0304 34.2436 23.7052 34.5769C23.3801 34.9103 23.2181 35.3123 23.2181 35.7841C23.2181 36.256 23.3801 36.6744 23.7052 37.0067V37.0078Z" fill="#492F87"/>
<path d="M34.6829 38.4704V33.0754H36.9435C37.4471 33.0754 37.88 33.2456 38.2359 33.5944C38.6 33.9349 38.7774 34.3534 38.7774 34.8559C38.7774 35.5452 38.3979 36.1411 37.8174 36.3883L39.1333 38.4704H37.7866L36.6645 36.6744H35.8676V38.4704H34.6829ZM35.8666 35.6221H36.8112C37.2758 35.6221 37.5856 35.3277 37.5856 34.8713C37.5856 34.461 37.2912 34.1595 36.9117 34.1595H35.8666V35.6221Z" fill="#492F87"/>
<path d="M46.6812 33.8026C47.2463 33.261 47.9274 32.9902 48.7243 32.9902C49.5213 32.9902 50.2033 33.261 50.7603 33.8026C51.3254 34.3441 51.6044 35.0026 51.6044 35.7841C51.6044 36.5657 51.3254 37.2314 50.7685 37.7739C50.2115 38.3083 49.5295 38.5791 48.7253 38.5791C47.9212 38.5791 47.2463 38.3083 46.6822 37.7739C46.1253 37.2324 45.8463 36.5667 45.8463 35.7841C45.8463 35.0016 46.1253 34.3441 46.6822 33.8026H46.6812ZM47.5253 37.0078C47.8504 37.3329 48.2525 37.495 48.7253 37.495C49.1982 37.495 49.592 37.3329 49.9172 36.9996C50.2505 36.6662 50.4126 36.256 50.4126 35.7841C50.4126 35.3123 50.2505 34.9093 49.9254 34.5769C49.6002 34.2436 49.1982 34.0733 48.7253 34.0733C48.2525 34.0733 47.8504 34.2436 47.5253 34.5769C47.2002 34.9103 47.0381 35.3123 47.0381 35.7841C47.0381 36.256 47.2002 36.6744 47.5253 37.0067V37.0078Z" fill="#492F87"/>
<path d="M58.2435 37.4642L60.2405 33.0754H61.5021L59.9615 36.4037H61.2313V35.3975H62.3923V38.4704H61.2313V37.4642H58.2435Z" fill="#82B14B"/>
<path d="M11.2537 33.0754H14.8066V34.1595H12.4455V35.2662H14.5973V36.3267H12.4455V38.4714H11.2537V33.0754Z" fill="#492F87"/>
</svg>
