<svg width="55" height="55" viewBox="0 0 55 55" fill="none" xmlns="http://www.w3.org/2000/svg">
<path d="M27.4998 19.4431C26.61 19.4431 25.8885 20.1645 25.8885 21.0544V24.277C25.8885 25.1669 26.61 25.8883 27.4998 25.8883C28.3897 25.8883 29.1112 25.1669 29.1112 24.277V21.0544C29.1112 20.1645 28.3897 19.4431 27.4998 19.4431Z" fill="#492F87"/>
<path d="M27.4998 29.1109C26.61 29.1109 25.8885 29.8323 25.8885 30.7222V33.9448C25.8885 34.8347 26.61 35.5561 27.4998 35.5561C28.3897 35.5561 29.1112 34.8347 29.1112 33.9448V30.7222C29.1112 29.8323 28.3897 29.1109 27.4998 29.1109Z" fill="#492F87"/>
<path d="M27.4998 38.7787C26.61 38.7787 25.8885 39.5002 25.8885 40.39V43.6126C25.8885 44.5025 26.61 45.2239 27.4998 45.2239C28.3897 45.2239 29.1112 44.5025 29.1112 43.6126V40.39C29.1112 39.5002 28.3897 38.7787 27.4998 38.7787Z" fill="#492F87"/>
<path d="M27.4998 48.4465C26.61 48.4465 25.8885 49.168 25.8885 50.0578V53.3879C25.8885 54.2777 26.61 54.9992 27.4998 54.9992C28.3897 54.9992 29.1112 54.2777 29.1112 53.3879V50.0578C29.1112 49.168 28.3897 48.4465 27.4998 48.4465Z" fill="#492F87"/>
<path d="M37.1677 16.2204C36.2778 16.2204 35.5564 16.9419 35.5564 17.8318V37.1674C35.5564 38.0573 36.2778 38.7787 37.1677 38.7787C38.0575 38.7787 38.779 38.0573 38.779 37.1674V29.1109H45.2242C48.7781 29.1109 51.6694 26.2196 51.6694 22.6657C51.6694 19.1118 48.7781 16.2204 45.2242 16.2204H37.1677ZM48.4468 22.6657C48.4468 24.4426 47.0011 25.8883 45.2242 25.8883H38.779V19.4431H45.2242C47.0011 19.4431 48.4468 20.8887 48.4468 22.6657Z" fill="#492F87"/>
<path d="M20.9476 2.74349e-06H1.61187C0.721998 2.74349e-06 0.000562157 0.721439 0.000562157 1.61131C0.000562157 2.50118 0.721998 3.22262 1.61187 3.22262H20.9476C21.8374 3.22262 22.5589 2.50118 22.5589 1.61131C22.5589 0.721439 21.8374 2.74349e-06 20.9476 2.74349e-06Z" fill="#492F87"/>
<path d="M34.0525 3.22262H53.3882C54.2781 3.22262 54.9995 2.50118 54.9995 1.61131C54.9995 0.721436 54.2781 0 53.3882 0H34.0525C33.1626 0 32.4412 0.721436 32.4412 1.61131C32.4412 2.50118 33.1626 3.22262 34.0525 3.22262Z" fill="#492F87"/>
<path d="M20.9472 51.7765H1.61155C0.721683 51.7765 0.000247117 52.498 0.000247117 53.3879C0.000247117 54.2777 0.721683 54.9992 1.61155 54.9992H20.9472C21.8371 54.9992 22.5585 54.2777 22.5585 53.3879C22.5585 52.498 21.8371 51.7765 20.9472 51.7765Z" fill="#492F87"/>
<path d="M22.4949 14.1647C22.289 12.407 21.5695 10.9027 20.3444 9.68428C17.3181 6.67403 12.2625 6.5476 11.2781 6.55275C10.2962 6.54728 5.2405 6.67392 2.21425 9.68417C0.989226 10.9027 0.269616 12.407 0.0636905 14.1647C-0.00527347 14.405 9.75551e-05 14.4628 9.75551e-05 15.2445V43.6127C9.75551e-05 46.2781 2.1686 48.4466 4.83402 48.4466H17.7245C20.3899 48.4466 22.5584 46.2781 22.5584 43.6127V15.2445C22.5585 14.4644 22.5641 14.4057 22.4949 14.1647ZM3.22282 24.9267C4.01698 24.2353 6.36208 22.6657 11.2794 22.6657C16.1966 22.6657 18.5417 24.2353 19.3359 24.9267V33.9449C19.3359 36.6103 17.1674 38.7788 14.502 38.7788H8.05674C5.39132 38.7788 3.22282 36.6103 3.22282 33.9449V24.9267ZM11.2118 9.77515C11.2282 9.77515 11.2449 9.77515 11.261 9.77526H11.2975C11.3138 9.77515 11.3302 9.77515 11.3467 9.77515C13.0493 9.77515 16.3284 10.2351 18.0716 11.969C18.3846 12.2804 18.6379 12.6225 18.8337 12.998H17.7244C16.8345 12.998 16.1131 13.7194 16.1131 14.6093C16.1131 15.4992 16.8345 16.2206 17.7244 16.2206H19.3357V21.0848C17.6138 20.2214 15.0238 19.4432 11.2791 19.4432C7.53446 19.4432 4.94445 20.2214 3.22261 21.0848V16.2205H4.83391C5.72378 16.2205 6.44522 15.4991 6.44522 14.6092C6.44522 13.7193 5.72378 12.9979 4.83391 12.9979H3.7248C3.92062 12.6224 4.17392 12.2803 4.48694 11.9689C6.23016 10.235 9.50928 9.77515 11.2118 9.77515ZM17.7246 45.224H4.83413C3.94565 45.224 3.22282 44.5012 3.22282 43.6127V40.3857C4.5703 41.3995 6.24445 42.0014 8.05674 42.0014H14.502C16.3143 42.0014 17.9884 41.3995 19.3359 40.3857V43.6127C19.3359 44.5012 18.6131 45.224 17.7246 45.224Z" fill="#492F87"/>
<path d="M27.4998 9.77525C26.61 9.77525 25.8885 10.4967 25.8885 11.3866V14.6092C25.8885 15.499 26.61 16.2205 27.4998 16.2205C28.3897 16.2205 29.1112 15.499 29.1112 14.6092V11.3866C29.1112 10.4967 28.3897 9.77525 27.4998 9.77525Z" fill="#492F87"/>
<path d="M27.4998 0C26.61 0 25.8885 0.721436 25.8885 1.61131V4.94134C25.8885 5.83121 26.61 6.55265 27.4998 6.55265C28.3897 6.55265 29.1112 5.83121 29.1112 4.94134V1.61131C29.1112 0.721436 28.3897 0 27.4998 0Z" fill="#492F87"/>
<path d="M53.3882 51.7765H34.0525C33.1626 51.7765 32.4412 52.498 32.4412 53.3879C32.4412 54.2777 33.1626 54.9992 34.0525 54.9992H53.3882C54.2781 54.9992 54.9995 54.2777 54.9995 53.3879C54.9995 52.498 54.2781 51.7765 53.3882 51.7765Z" fill="#492F87"/>
</svg>
