<svg width="55" height="55" viewBox="0 0 55 55" fill="none" xmlns="http://www.w3.org/2000/svg">
<path d="M53.3887 0H1.61133C0.721445 0 0 0.721445 0 1.61133V53.3887C0 54.2786 0.721445 55 1.61133 55H53.3887C54.2786 55 55 54.2786 55 53.3887V1.61133C55 0.721445 54.2786 0 53.3887 0ZM9.66797 3.22266H45.332V38.6719H38.5873L34.1602 34.2447V27.7704L35.0815 28.2001C35.3017 28.3028 35.5333 28.3514 35.7614 28.3514C36.3681 28.3514 36.9495 28.0069 37.2228 27.4207C37.5988 26.6142 37.2499 25.6555 36.4433 25.2794L34.1602 24.2146V22.666C34.1602 21.7761 33.4387 21.0547 32.5488 21.0547C31.6589 21.0547 30.9375 21.7761 30.9375 22.666V22.7119L28.0007 21.3425C28.0243 21.1426 28.0379 20.9395 28.0379 20.7333C28.0379 17.8901 25.7247 15.577 22.8816 15.577C20.0385 15.577 17.7254 17.8901 17.7254 20.7333C17.7254 23.5764 20.0385 25.8895 22.8816 25.8895C24.3605 25.8895 25.695 25.2627 26.6362 24.262L30.9375 26.2677V34.2447L26.5103 38.6719H9.66797V3.22266ZM34.2755 38.6719H30.822L32.5488 37.1909L34.2755 38.6719ZM22.8817 22.6669C21.8156 22.6669 20.9481 21.7994 20.9481 20.7333C20.9481 19.6671 21.8156 18.7997 22.8817 18.7997C23.9479 18.7997 24.8153 19.6671 24.8153 20.7333C24.8153 21.7994 23.9479 22.6669 22.8817 22.6669ZM3.22266 3.22266H6.44531V6.44531H3.22266V3.22266ZM3.22266 9.66797H6.44531V12.8906H3.22266V9.66797ZM3.22266 16.1133H6.44531V19.3359H3.22266V16.1133ZM3.22266 22.5586H6.44531V25.7813H3.22266V22.5586ZM3.22266 29.0039H6.44531V38.6719H3.22266V29.0039ZM13.1055 51.7773H3.22266V41.8945H13.1055V51.7773ZM38.6719 51.7773H16.3281V48.4473H38.6719V51.7773ZM38.6719 45.2246H16.3281V41.8945H38.6719V45.2246ZM51.7773 51.7773H41.8945V41.8945H51.7773V51.7773ZM51.7773 38.6719H48.5547V29.0039H51.7773V38.6719ZM51.7773 25.7813H48.5547V22.5586H51.7773V25.7813ZM51.7773 19.3359H48.5547V16.1133H51.7773V19.3359ZM51.7773 12.8906H48.5547V9.66797H51.7773V12.8906ZM51.7773 6.44531H48.5547V3.22266H51.7773V6.44531Z" fill="#492F87"/>
</svg>
