<svg width="55" height="55" viewBox="0 0 55 55" fill="none" xmlns="http://www.w3.org/2000/svg">
<path d="M53.3882 13.1054H42.0016V3.22263H43.6129C44.5028 3.22263 45.2242 2.50119 45.2242 1.61131C45.2242 0.721439 44.5028 0 43.6129 0H11.3866C10.4967 0 9.7753 0.721439 9.7753 1.61131C9.7753 2.50119 10.4967 3.22263 11.3866 3.22263H12.9979V13.1054H1.61131C0.721439 13.1054 0 13.8268 0 14.7167C0 15.6065 0.721439 16.328 1.61131 16.328H2.14842V53.3882C2.14842 54.2781 2.86986 54.9995 3.75973 54.9995H51.2398C52.1297 54.9995 52.8511 54.2781 52.8511 53.3882V16.328H53.3882C54.2781 16.328 54.9995 15.6065 54.9995 14.7167C54.9995 13.8268 54.2781 13.1054 53.3882 13.1054ZM5.37105 48.5543H8.05657C8.94644 48.5543 9.66788 47.8328 9.66788 46.9429C9.66788 46.0531 8.94644 45.3316 8.05657 45.3316H5.37105V42.109H8.05657C8.94644 42.109 9.66788 41.3876 9.66788 40.4977C9.66788 39.6078 8.94644 38.8864 8.05657 38.8864H5.37105V35.6637H8.05657C8.94644 35.6637 9.66788 34.9423 9.66788 34.0524C9.66788 33.1626 8.94644 32.4411 8.05657 32.4411H5.37105V29.2185H8.05657C8.94644 29.2185 9.66788 28.497 9.66788 27.6072C9.66788 26.7173 8.94644 25.9959 8.05657 25.9959H5.37105V22.7732H8.05657C8.94644 22.7732 9.66788 22.0518 9.66788 21.1619C9.66788 20.272 8.94644 19.5506 8.05657 19.5506H5.37105V16.328H12.9979V51.7769H5.37105V48.5543ZM16.2206 3.22263H38.7789V51.7769H35.5563V40.4977C35.5563 39.6078 34.8349 38.8864 33.945 38.8864H21.0545C20.1646 38.8864 19.4432 39.6078 19.4432 40.4977V51.7769H16.2206V3.22263ZM22.6658 42.109H25.8884V51.7769H22.6658V42.109ZM29.1111 51.7769V42.109H32.3337V51.7769H29.1111ZM49.6285 19.5506H46.9429C46.0531 19.5506 45.3316 20.272 45.3316 21.1619C45.3316 22.0518 46.0531 22.7732 46.9429 22.7732H49.6285V25.9959H46.9429C46.0531 25.9959 45.3316 26.7173 45.3316 27.6072C45.3316 28.497 46.0531 29.2185 46.9429 29.2185H49.6285V32.4411H46.9429C46.0531 32.4411 45.3316 33.1626 45.3316 34.0524C45.3316 34.9423 46.0531 35.6637 46.9429 35.6637H49.6285V38.8864H46.9429C46.0531 38.8864 45.3316 39.6078 45.3316 40.4977C45.3316 41.3876 46.0531 42.109 46.9429 42.109H49.6285V45.3316H46.9429C46.0531 45.3316 45.3316 46.0531 45.3316 46.9429C45.3316 47.8328 46.0531 48.5543 46.9429 48.5543H49.6285V51.7769H42.0016V16.328H49.6285V19.5506Z" fill="#492F87"/>
<path d="M23.2029 22.7733C24.0928 22.7733 24.8142 22.0518 24.8142 21.1619V16.328H30.1853V21.1619C30.1853 22.0518 30.9067 22.7733 31.7966 22.7733C32.6865 22.7733 33.4079 22.0518 33.4079 21.1619V8.27143C33.4079 7.38156 32.6865 6.66012 31.7966 6.66012C30.9067 6.66012 30.1853 7.38156 30.1853 8.27143V13.1054H24.8142V8.27143C24.8142 7.38156 24.0928 6.66012 23.2029 6.66012C22.313 6.66012 21.5916 7.38156 21.5916 8.27143V21.1619C21.5916 22.0518 22.313 22.7733 23.2029 22.7733Z" fill="#492F87"/>
<path d="M21.0545 35.6638H33.945C34.8349 35.6638 35.5563 34.9423 35.5563 34.0525C35.5563 33.1626 34.8349 32.4411 33.945 32.4411H21.0545C20.1646 32.4411 19.4432 33.1626 19.4432 34.0525C19.4432 34.9423 20.1646 35.6638 21.0545 35.6638Z" fill="#492F87"/>
<path d="M21.0545 29.2185H33.945C34.8349 29.2185 35.5563 28.4971 35.5563 27.6072C35.5563 26.7173 34.8349 25.9959 33.945 25.9959H21.0545C20.1646 25.9959 19.4432 26.7173 19.4432 27.6072C19.4432 28.4971 20.1646 29.2185 21.0545 29.2185Z" fill="#492F87"/>
</svg>
