<svg width="55" height="51" viewBox="0 0 55 51" fill="none" xmlns="http://www.w3.org/2000/svg">
<path d="M38.2422 37.5977H42.5391C43.429 37.5977 44.1504 36.8762 44.1504 35.9864C44.1504 35.0965 43.429 34.375 42.5391 34.375H38.2422C37.3524 34.375 36.6309 35.0965 36.6309 35.9864C36.6309 36.8762 37.3524 37.5977 38.2422 37.5977Z" fill="#492F87"/>
<path d="M53.3887 18.2617C54.2786 18.2617 55 17.5403 55 16.6504V1.61133C55 0.721446 54.2786 0 53.3887 0H29.7559C28.866 0 28.1445 0.721446 28.1445 1.61133V16.6504C28.1445 17.5403 28.866 18.2617 29.7559 18.2617H36.4475L35.9104 21.4844H26.9629V19.873C26.9629 16.0229 23.8306 12.8906 19.9805 12.8906H15.6836C11.8335 12.8906 8.70117 16.0229 8.70117 19.873V21.4844H1.61133C0.721445 21.4844 0 22.2058 0 23.0957V29.541C0 30.4309 0.721445 31.1523 1.61133 31.1523H3.33008V48.877C3.33008 49.7668 4.05152 50.4883 4.94141 50.4883C5.83129 50.4883 6.55273 49.7668 6.55273 48.877V31.1523H8.70117V33.8379C8.70117 34.7278 9.42262 35.4492 10.3125 35.4492H16.2207V42.8385L11.3216 47.7375C10.6923 48.3668 10.6923 49.387 11.3216 50.0163C11.9508 50.6456 12.9711 50.6456 13.6004 50.0163L16.2207 47.3959V48.877C16.2207 49.7668 16.9421 50.4883 17.832 50.4883C18.7219 50.4883 19.4434 49.7668 19.4434 48.877V47.3959L22.0638 50.0163C22.3783 50.331 22.7907 50.4883 23.2031 50.4883C23.6155 50.4883 24.0279 50.331 24.3424 50.0163C24.9717 49.387 24.9717 48.3668 24.3424 47.7375L19.4434 42.8385V35.4492H25.3516C26.2414 35.4492 26.9629 34.7278 26.9629 33.8379V31.1523H29.1113V48.877C29.1113 49.7668 29.8328 50.4883 30.7227 50.4883C31.6125 50.4883 32.334 49.7668 32.334 48.877V44.043H48.4473V48.877C48.4473 49.7668 49.1687 50.4883 50.0586 50.4883C50.9485 50.4883 51.6699 49.7668 51.6699 48.877V31.1523H53.3887C54.2786 31.1523 55 30.4309 55 29.541V23.0957C55 22.2058 54.2786 21.4844 53.3887 21.4844H47.2342L46.697 18.2617H53.3887ZM31.3672 3.22266H51.7773V15.0391H31.3672V3.22266ZM3.22266 27.9297V24.707H8.70117V27.9297H3.22266ZM23.7402 32.2266H11.9238V19.873C11.9238 17.7999 13.6105 16.1133 15.6836 16.1133H19.9805C22.0536 16.1133 23.7402 17.7999 23.7402 19.873V32.2266ZM48.4473 40.8203H32.334V31.1523H48.4473V40.8203ZM51.7773 27.9297H26.9629V24.707H51.7773V27.9297ZM43.967 21.4844H39.1775L39.7146 18.2617H43.4299L43.967 21.4844Z" fill="#492F87"/>
</svg>
