<svg width="55" height="55" viewBox="0 0 55 55" fill="none" xmlns="http://www.w3.org/2000/svg">
<path d="M48.5547 6.44531C45.0007 6.44531 42.1094 9.33668 42.1094 12.8906V13.1678C40.2339 13.8329 38.8867 15.624 38.8867 17.7246C38.8867 20.3901 41.0552 22.5586 43.7207 22.5586C46.3862 22.5586 48.5547 20.3901 48.5547 17.7246C48.5547 15.624 47.2075 13.8329 45.332 13.1678V12.8906C45.332 11.1137 46.7777 9.66797 48.5547 9.66797C50.3317 9.66797 51.7773 11.1137 51.7773 12.8906V45.1172H45.332V41.8945H46.9434C47.8332 41.8945 48.5547 41.1731 48.5547 40.2832C48.5547 39.3933 47.8332 38.6719 46.9434 38.6719H45.332V30.6152C45.332 29.7254 44.6106 29.0039 43.7207 29.0039C42.8308 29.0039 42.1094 29.7254 42.1094 30.6152V32.2266H25.8887V30.6152C25.8887 29.7254 25.1672 29.0039 24.2773 29.0039C23.3875 29.0039 22.666 29.7254 22.666 30.6152V38.6719H21.0547C20.1648 38.6719 19.4434 39.3933 19.4434 40.2832C19.4434 41.1731 20.1648 41.8945 21.0547 41.8945H22.666V45.1172H19.28C18.6375 41.9654 16.1498 39.4781 12.998 38.8354V32.1333C18.4726 31.4892 22.666 27.4432 22.666 19.3358C22.666 17.0832 22.3469 14.8972 21.741 12.8905H27.5C29.6009 12.8905 31.3929 11.5436 32.0579 9.66786H37.2754C39.9409 9.66786 42.1094 7.49934 42.1094 4.83388C42.1094 2.16842 39.9409 0 37.2754 0H27.5C25.3992 0 23.6071 1.34696 22.9421 3.22266H17.832C16.8295 3.22266 15.8761 3.52773 15.0778 4.083C13.9108 3.51699 12.6684 3.22266 11.3867 3.22266C8.24635 3.22266 5.32544 4.98266 3.16229 8.17824C1.1231 11.1909 0 15.1535 0 19.3359C0 26.2016 3.23898 31.3711 9.77539 32.1341V36.3149C8.81622 35.7605 7.71042 35.4492 6.55273 35.4492C3.01909 35.4492 0 38.3049 0 41.8945C0 44.264 0 50.7597 0 53.3887C0 54.2786 0.721445 55 1.61133 55H53.3887C54.2786 55 55 54.2786 55 53.3887C55 51.4162 55 14.684 55 12.8906C55 9.33668 52.1086 6.44531 48.5547 6.44531ZM43.7207 19.3359C42.8322 19.3359 42.1094 18.6131 42.1094 17.7246C42.1094 16.8361 42.8322 16.1133 43.7207 16.1133C44.6092 16.1133 45.332 16.8361 45.332 17.7246C45.332 18.6131 44.6092 19.3359 43.7207 19.3359ZM25.8887 35.4492H42.1094V38.6719H25.8887V35.4492ZM25.8887 41.8945H42.1094V45.1172H25.8887V41.8945ZM24.2773 6.44531C25.1672 6.44531 25.8887 5.72387 25.8887 4.83398C25.8887 3.9455 26.6115 3.22266 27.5 3.22266H37.2754C38.1639 3.22266 38.8867 3.9455 38.8867 4.83398C38.8867 5.72247 38.1639 6.44531 37.2754 6.44531H30.7227C29.8328 6.44531 29.1113 7.16676 29.1113 8.05664C29.1113 8.94513 28.3885 9.66797 27.5 9.66797H20.4381C20.1692 9.15288 19.8776 8.65853 19.5638 8.1877C19.1375 7.54832 18.6801 6.96738 18.1968 6.44531H24.2773ZM3.22266 19.3359C3.22266 12.3485 6.96137 6.44531 11.3867 6.44531C12.5691 6.44531 13.4669 6.82623 14.4459 7.43671C17.8521 9.72855 19.4434 14.8832 19.4434 19.3359C19.4434 24.8917 17.1695 28.2207 12.998 28.8802V28.06L15.7487 25.3093C16.378 24.6801 16.378 23.6599 15.7487 23.0306C15.1195 22.4014 14.0992 22.4014 13.47 23.0306L11.8281 24.6724L9.60524 20.2267C9.20735 19.4308 8.23958 19.1081 7.44348 19.5061C6.64748 19.9041 6.32489 20.872 6.72289 21.668L9.77539 27.773V28.8836C5.5347 28.232 3.22266 24.9011 3.22266 19.3359ZM3.22266 41.8945C3.22266 40.1476 4.74762 38.6719 6.55273 38.6719C7.9186 38.6719 9.14063 39.5367 9.59374 40.8239C9.82899 41.4921 10.4766 41.929 11.1808 41.8987C13.3474 41.8088 15.2501 43.1583 15.9446 45.1171C14.188 45.1171 4.52397 45.1171 3.22266 45.1171V41.8945ZM51.7773 51.7773H3.22266V48.3398C4.29526 48.3398 49.1138 48.3398 51.7773 48.3398C51.7773 48.6924 51.7773 51.3347 51.7773 51.7773Z" fill="#492F87"/>
</svg>
