<svg width="55" height="55" viewBox="0 0 55 55" fill="none" xmlns="http://www.w3.org/2000/svg">
<path d="M53.3887 51.7774H51.6699V27.0703H53.3887C54.2786 27.0703 55 26.3489 55 25.459C55 24.5691 54.2786 23.8477 53.3887 23.8477H1.61133C0.721445 23.8477 0 24.5691 0 25.459C0 26.3489 0.721445 27.0703 1.61133 27.0703H3.33008V51.7774H1.61133C0.721445 51.7774 0 52.4988 0 53.3887C0 54.2786 0.721445 55 1.61133 55H53.3887C54.2786 55 55 54.2786 55 53.3887C55 52.4988 54.2786 51.7774 53.3887 51.7774ZM6.55273 39.9609H11.9238V44.2578H6.55273V39.9609ZM25.8887 51.7774H21.5918V39.9609H25.8887V51.7774ZM33.4082 51.7774H29.1113V39.9609H33.4082V51.7774ZM33.4082 36.7383H21.5918V33.5156H33.4082V36.7383ZM48.4473 44.2578H43.0762V39.9609H48.4473V44.2578ZM48.4473 36.7383H41.4648C40.575 36.7383 39.8535 37.4597 39.8535 38.3496V45.8692C39.8535 46.759 40.575 47.4805 41.4648 47.4805H48.4473V51.7774H36.6309V31.9043C36.6309 31.0144 35.9094 30.293 35.0195 30.293H19.9805C19.0906 30.293 18.3691 31.0144 18.3691 31.9043V51.7774H6.55273V47.4805H13.5352C14.425 47.4805 15.1465 46.759 15.1465 45.8692V38.3496C15.1465 37.4597 14.425 36.7383 13.5352 36.7383H6.55273V27.0703H48.4473V36.7383Z" fill="#492F87"/>
<path d="M34.6884 10.1172C34.8458 10.1772 35.0073 10.2055 35.1661 10.2055C35.7071 10.2055 36.2171 9.87605 36.4212 9.34023L36.7951 8.35871H39.4778L39.8468 9.33647C40.1087 10.0303 40.8834 10.3804 41.5772 10.1186C42.271 9.85671 42.6213 9.08209 42.3594 8.38825L39.5615 0.974209C39.5569 0.962071 39.5522 0.950039 39.5472 0.938008C39.313 0.368135 38.7638 0 38.1476 0C38.1472 0 38.1479 0 38.1476 0C37.531 0.000429688 36.9805 0.369531 36.7471 0.940264C36.743 0.950362 36.7389 0.960567 36.735 0.970772L33.9116 8.38439C33.6476 9.07737 33.9954 9.85327 34.6884 10.1172ZM38.1426 4.82045L38.4644 5.67317H37.8178L38.1426 4.82045Z" fill="#492F87"/>
<path d="M13.1471 10.1708H16.2867C17.0282 10.1708 17.6295 9.56959 17.6295 8.82806C17.6295 8.08652 17.0282 7.48528 16.2867 7.48528H14.4898V6.44533H16.0551C16.7966 6.44533 17.3979 5.8442 17.3979 5.10256C17.3979 4.36092 16.7966 3.75979 16.0551 3.75979H14.4898V2.71984H16.2867C17.0282 2.71984 17.6295 2.11859 17.6295 1.37706C17.6295 0.635528 17.0282 0.0342879 16.2867 0.0342879H13.1471C12.4055 0.0342879 11.8043 0.635528 11.8043 1.37706V8.82795C11.8043 9.56959 12.4054 10.1708 13.1471 10.1708Z" fill="#492F87"/>
<path d="M45.3977 9.59729C46.027 9.99947 46.7361 10.204 47.5049 10.2051H47.5112C48.1697 10.2051 48.7892 10.0612 49.3531 9.77732C50.7432 9.07715 51.5089 7.91732 51.5089 6.51159V1.34277C51.5089 0.601133 50.9077 0 50.1661 0C49.4246 0 48.8234 0.601133 48.8234 1.34277V6.51159C48.8234 6.70817 48.8234 7.0371 48.1451 7.3787C47.957 7.47345 47.7497 7.51953 47.5113 7.51953C47.5105 7.51953 47.5096 7.51953 47.5088 7.51953C47.2559 7.51921 47.0384 7.45862 46.8439 7.33423C46.3262 7.00359 46.2841 6.76844 46.2841 6.51696V1.34277C46.2841 0.601133 45.6829 0 44.9414 0C44.1998 0 43.5986 0.601133 43.5986 1.34277V6.51696C43.5984 7.79829 44.2039 8.8347 45.3977 9.59729Z" fill="#492F87"/>
<path d="M28.8612 2.68555H29.5864V8.86231C29.5864 9.60384 30.1876 10.2051 30.9291 10.2051C31.6707 10.2051 32.2719 9.60384 32.2719 8.86231V2.68555H33.0139C33.7554 2.68555 34.3566 2.08441 34.3566 1.34277C34.3566 0.601133 33.7554 0 33.0139 0H28.8612C28.1196 0 27.5184 0.601133 27.5184 1.34277C27.5184 2.08441 28.1196 2.68555 28.8612 2.68555Z" fill="#492F87"/>
<path d="M4.83408 10.2051C5.57561 10.2051 6.17685 9.60384 6.17685 8.86231V7.80119L7.89152 9.7494C8.15707 10.051 8.52757 10.2051 8.9001 10.2051C9.21517 10.2051 9.53164 10.0949 9.78677 9.87025C10.3434 9.38029 10.3976 8.53188 9.90762 7.97511L8.37664 6.23573C9.48265 5.69024 10.2423 4.57821 10.2423 3.2971C10.2423 1.47909 8.71362 0 6.83471 0H4.83644C4.83601 0 4.83677 0 4.83644 0C4.83612 0 4.83451 0 4.83408 0C4.09255 0 3.49131 0.60124 3.49131 1.34277V8.86231C3.49131 9.60384 4.09255 10.2051 4.83408 10.2051ZM6.83471 2.68555C7.21938 2.68555 7.5568 2.97129 7.5568 3.29699C7.5568 3.6227 7.21938 3.90844 6.83471 3.90844C6.67347 3.90844 6.43853 3.90919 6.18598 3.91026C6.18502 3.67082 6.18384 2.9381 6.1833 2.68555H6.83471Z" fill="#492F87"/>
<path d="M19.2776 22.0948C19.4349 22.1547 19.5964 22.1831 19.7553 22.1831C20.2962 22.1831 20.8063 21.8536 21.0104 21.3178L21.3842 20.3363H24.0671L24.4361 21.314C24.698 22.0079 25.4728 22.3582 26.1664 22.0962C26.8602 21.8343 27.2106 21.0597 26.9487 20.3658L24.1507 12.9519C24.146 12.9395 24.1412 12.9272 24.1361 12.9149C23.9016 12.3455 23.3525 11.9777 22.7369 11.9777C22.7364 11.9777 22.7373 11.9777 22.7369 11.9777C22.1207 11.9781 21.5702 12.347 21.3365 12.9172C21.3322 12.9276 21.3281 12.938 21.3242 12.9486L18.5007 20.3622C18.2367 21.0549 18.5846 21.8308 19.2776 22.0948ZM22.7317 16.7979L23.0535 17.6507H22.4069L22.7317 16.7979Z" fill="#492F87"/>
<path d="M29.4886 12.0524C28.9275 12.2273 28.5454 12.7467 28.5454 13.3344V20.8399C28.5454 21.5814 29.1467 22.1826 29.8882 22.1826C30.6297 22.1826 31.231 21.5814 31.231 20.8399V17.6418L33.8586 21.4468C34.2315 21.9853 34.8844 22.2216 35.4838 22.0342C36.1013 21.8413 36.5003 21.273 36.5003 20.5864C36.5003 20.582 36.5003 20.5777 36.5002 20.5734L36.43 13.3072C36.4229 12.5701 35.8231 11.9775 35.0876 11.9775C35.0832 11.9775 35.0787 11.9775 35.0743 11.9775C34.3328 11.9847 33.7374 12.5916 33.7446 13.3332L33.7762 16.6012L30.9932 12.5712C30.6592 12.0878 30.0495 11.8776 29.4886 12.0524Z" fill="#492F87"/>
<path d="M38.0105 13.3203C38.0105 14.062 38.6117 14.6631 39.3532 14.6631H40.0784V20.8399C40.0784 21.5814 40.6797 22.1826 41.4212 22.1826C42.1627 22.1826 42.764 21.5814 42.764 20.8399V14.6631H43.506C44.2475 14.6631 44.8487 14.062 44.8487 13.3203C44.8487 12.5787 44.2475 11.9776 43.506 11.9776H39.3532C38.6116 11.9776 38.0105 12.5787 38.0105 13.3203Z" fill="#492F87"/>
<path d="M10.1514 20.8399C10.1514 21.5814 10.7527 22.1826 11.4942 22.1826C12.2357 22.1826 12.837 21.5814 12.837 20.8399V19.7787L14.5516 21.7269C14.8172 22.0286 15.1877 22.1826 15.5602 22.1826C15.8753 22.1826 16.1918 22.0724 16.4469 21.8478C17.0035 21.3578 17.0577 20.5094 16.5677 19.9527L15.0368 18.2132C16.1428 17.6677 16.9025 16.5557 16.9025 15.2745C16.9025 13.4565 15.3739 11.9776 13.4948 11.9776H11.4966C11.4961 11.9776 11.4969 11.9776 11.4966 11.9776C11.4962 11.9776 11.4946 11.9776 11.4942 11.9776C10.7527 11.9776 10.1514 12.5788 10.1514 13.3203V20.8399ZM13.4948 14.6631C13.8795 14.6631 14.2169 14.9488 14.2169 15.2745C14.2169 15.6002 13.8795 15.886 13.4948 15.886C13.3336 15.886 13.0987 15.8867 12.8461 15.8878C12.8451 15.6484 12.844 14.9156 12.8434 14.6631H13.4948Z" fill="#492F87"/>
<path d="M22.8449 7.51955C22.2092 7.51955 21.6017 7.26775 21.2195 6.84591C20.7215 6.29655 19.8724 6.25455 19.3228 6.75256C18.7733 7.25057 18.7315 8.09974 19.2295 8.64931C20.1255 9.63802 21.4432 10.2051 22.8449 10.2051C24.625 10.2051 26.1225 9.05429 26.4056 7.46863C26.6115 6.31503 26.0952 4.68877 23.9625 3.90201C23.1158 3.58974 22.3226 3.25125 22.0042 3.11289C21.9919 3.09323 21.984 3.06444 21.9903 3.02061C22.0074 2.90181 22.1223 2.8019 22.3059 2.74658C23.1552 2.49081 23.9777 3.13019 24.0025 3.14974C24.2345 3.34052 24.5353 3.45857 24.859 3.45857C25.6007 3.45857 26.2018 2.85744 26.2018 2.1158C26.2018 1.7033 26.0088 1.33012 25.716 1.0838C25.0012 0.489433 23.3251 -0.365323 21.5312 0.175224C20.3414 0.533691 19.4987 1.47771 19.332 2.63916C19.1741 3.73841 19.6512 4.7963 20.5769 5.39969C20.6362 5.43836 20.6985 5.4722 20.763 5.50109C20.807 5.52075 21.8543 5.98696 23.033 6.4217C23.5451 6.61065 23.7873 6.85396 23.7618 6.99673C23.7293 7.17902 23.4269 7.51955 22.8449 7.51955Z" fill="#492F87"/>
</svg>
