<svg width="200" height="22" viewBox="0 0 200 22" fill="none" xmlns="http://www.w3.org/2000/svg">
<path d="M45.396 3.17696C47.6063 1.05899 50.2698 0 53.3866 0C56.5033 0 59.1709 1.05899 61.349 3.17696C63.5592 5.29493 64.6503 7.87019 64.6503 10.9268C64.6503 13.9834 63.5592 16.5868 61.3811 18.7088C59.203 20.7987 56.5395 21.8576 53.3906 21.8576C50.2417 21.8576 47.6103 20.7987 45.4 18.7088C43.2219 16.5908 42.1308 13.9874 42.1308 10.9268C42.1308 7.86618 43.2219 5.29493 45.4 3.17696H45.396ZM48.6973 15.7123C49.9689 16.9839 51.5414 17.6177 53.3906 17.6177C55.2398 17.6177 56.7801 16.9839 58.0517 15.6802C59.3554 14.3765 59.9892 12.772 59.9892 10.9268C59.9892 9.08161 59.3554 7.50516 58.0838 6.2055C56.8122 4.90182 55.2398 4.23595 53.3906 4.23595C51.5414 4.23595 49.9689 4.90182 48.6973 6.2055C47.4258 7.50918 46.792 9.08161 46.792 10.9268C46.792 12.772 47.4258 14.4086 48.6973 15.7083V15.7123Z" fill="white"/>
<path d="M91.6304 21.4325V0.33297H100.471C102.441 0.33297 104.134 0.998848 105.526 2.36269C106.95 3.69445 107.644 5.33107 107.644 7.29661C107.644 9.99221 106.159 12.3228 103.889 13.2895L109.036 21.4325H103.769L99.3803 14.4087H96.2635V21.4325H91.6304ZM96.2595 10.2931H99.9539C101.771 10.2931 102.982 9.14181 102.982 7.35678C102.982 5.75225 101.831 4.57293 100.347 4.57293H96.2595V10.2931Z" fill="white"/>
<path d="M138.555 3.17696C140.765 1.05899 143.428 0 146.545 0C149.662 0 152.33 1.05899 154.508 3.17696C156.718 5.29493 157.809 7.87019 157.809 10.9268C157.809 13.9834 156.718 16.5868 154.54 18.7088C152.362 20.7987 149.694 21.8576 146.549 21.8576C143.404 21.8576 140.765 20.7987 138.559 18.7088C136.381 16.5908 135.29 13.9874 135.29 10.9268C135.29 7.86618 136.381 5.29493 138.559 3.17696H138.555ZM141.856 15.7123C143.128 16.9839 144.7 17.6177 146.549 17.6177C148.398 17.6177 149.939 16.9839 151.21 15.6802C152.514 14.3765 153.148 12.772 153.148 10.9268C153.148 9.08161 152.514 7.50516 151.243 6.2055C149.971 4.90182 148.398 4.23595 146.549 4.23595C144.7 4.23595 143.128 4.90182 141.856 6.2055C140.584 7.50918 139.951 9.08161 139.951 10.9268C139.951 12.772 140.584 14.4086 141.856 15.7083V15.7123Z" fill="white"/>
<path d="M183.774 17.4974L191.584 0.33297H196.518L190.493 13.3497H195.459V9.41458H200V21.4325H195.459V17.4974H183.774Z" fill="#82B14B"/>
<path d="M0 0.33297H13.8952V4.57293H4.66114V8.90113H13.0769V13.0488H4.66114V21.4365H0V0.33297Z" fill="white"/>
</svg>
