<svg width="27" height="27" viewBox="0 0 27 27" fill="none" xmlns="http://www.w3.org/2000/svg">
<path d="M26.209 25.418H23.8359V23.7832H24.627C25.0639 23.7832 25.418 23.4291 25.418 22.9922C25.418 22.5553 25.0639 22.2012 24.627 22.2012H18.1091C18.642 21.5686 19.2736 21.1477 20.1328 20.5757L20.2669 20.4863C20.5569 20.2928 20.6863 19.9326 20.5852 19.5989C20.4842 19.2654 20.1767 19.0371 19.8281 19.0371H16.6099L15.8967 9.00522L17.2233 7.67841C17.3717 7.5301 17.4551 7.32884 17.4551 7.11914V5.53711C17.4551 5.1002 17.101 4.74609 16.6641 4.74609H15.7371C15.8248 4.49849 15.873 4.23235 15.873 3.95508C15.873 3.53876 15.7635 3.12884 15.556 2.76958L14.1849 0.395508C14.0436 0.150787 13.7826 0 13.5 0C13.2174 0 12.9564 0.150787 12.8151 0.395508L11.444 2.76958C11.2365 3.12884 11.127 3.53876 11.127 3.95508C11.127 4.23235 11.1752 4.49849 11.2629 4.74609H10.3359C9.89902 4.74609 9.54492 5.1002 9.54492 5.53711V7.11914C9.54492 7.32884 9.62835 7.5301 9.77666 7.67841L11.1035 9.00522L10.3901 19.0371H7.17188C6.82333 19.0371 6.51579 19.2654 6.41485 19.5989C6.31391 19.9326 6.44307 20.2928 6.73311 20.4863L6.86742 20.5757C7.72641 21.1477 8.35799 21.5686 8.89089 22.2012H2.37305C1.93613 22.2012 1.58203 22.5553 1.58203 22.9922C1.58203 23.4291 1.93613 23.7832 2.37305 23.7832H3.16406V25.418H0.791016C0.354103 25.418 0 25.7721 0 26.209C0 26.6459 0.354103 27 0.791016 27H26.209C26.6459 27 27 26.6459 27 26.209C27 25.7721 26.6459 25.418 26.209 25.418ZM22.2539 25.418H20.6191V23.7832H22.2539V25.418ZM11.127 23.7832V25.418H7.96289V23.7832H11.127ZM12.709 23.7832H14.291V25.418H12.709V23.7832ZM15.873 23.7832H19.0371V25.418H15.873V23.7832ZM12.814 3.5606L13.5 2.37284L14.186 3.5606C14.4882 4.08403 14.1087 4.74609 13.5 4.74609C12.8913 4.74609 12.5118 4.08403 12.814 3.5606ZM12.4772 8.1419L11.127 6.7914V6.32812H15.873V6.7914L14.5228 8.1419C14.3606 8.30402 14.2768 8.52855 14.2931 8.7572L15.0237 19.0371H11.9763L12.7071 8.7572C12.7232 8.52855 12.6396 8.30402 12.4772 8.1419ZM9.56552 20.6086H17.4345C16.9829 21.0313 16.5712 21.5399 16.1911 22.2012H10.8089C10.4288 21.5399 10.0171 21.0313 9.56552 20.6086ZM4.74609 23.7832H6.38086V25.418H4.74609V23.7832Z" fill="white"/>
</svg>
