<svg width="21" height="21" viewBox="0 0 21 21" fill="none" xmlns="http://www.w3.org/2000/svg">
<path d="M19.9639 19.3613H19.3613V5.32266C19.3613 5.03787 19.2237 4.76799 18.9932 4.60073C18.7629 4.43346 18.4638 4.38639 18.1931 4.47457L15.6627 5.29991V1.0651C15.6627 0.722876 15.4966 0.399487 15.2188 0.199742C14.9412 0.000310435 14.582 -0.0536663 14.2579 0.0553855L5.75197 2.91945C5.24468 3.09032 4.90372 3.56497 4.90372 4.10066V7.7036L2.13145 8.60771C1.57741 8.78847 1.20506 9.30172 1.20506 9.88495V19.3613H0.602531C0.269727 19.3613 0 19.631 0 19.9638C0 20.2966 0.269727 20.5664 0.602531 20.5664H19.9639C20.2967 20.5664 20.5664 20.2966 20.5664 19.9638C20.5664 19.631 20.2967 19.3613 19.9639 19.3613ZM2.41012 9.88495C2.41012 9.82485 2.44825 9.77198 2.50505 9.75346L4.90372 8.97111V19.3613H4.25945V16.3118C4.25945 15.979 3.98973 15.7093 3.65692 15.7093C3.32427 15.7093 3.05439 15.979 3.05439 16.3118V19.3613H2.41012V9.88495ZM13.2524 19.3613V16.3118C13.2524 15.979 12.9827 15.7093 12.6498 15.7093C12.3172 15.7093 12.0473 15.979 12.0473 16.3118V19.3613H10.8857V16.3218C10.8857 15.989 10.616 15.7193 10.2832 15.7193C9.95039 15.7193 9.68066 15.989 9.68066 16.3218V19.3613H8.51906V16.3118C8.51906 15.979 8.24918 15.7093 7.91653 15.7093C7.58373 15.7093 7.314 15.979 7.314 16.3118V19.3613H6.10894V4.10066C6.10894 4.08293 6.12008 4.06708 6.13671 4.06159L14.4576 1.25982V19.3613H13.2524ZM17.512 19.3613V16.3218C17.512 15.989 17.2421 15.7193 16.9095 15.7193C16.5767 15.7193 16.3069 15.989 16.3069 16.3218V19.3613H15.6627V6.56758L18.1563 5.75432V19.3613H17.512Z" fill="white"/>
<path d="M7.91652 12.0916C7.58372 12.0916 7.31399 12.3613 7.31399 12.6941V14.3256C7.31399 14.6583 7.58372 14.9282 7.91652 14.9282C8.24917 14.9282 8.51905 14.6583 8.51905 14.3256V12.6941C8.51905 12.3613 8.24917 12.0916 7.91652 12.0916Z" fill="white"/>
<path d="M12.6498 12.0916C12.3172 12.0916 12.0473 12.3613 12.0473 12.6941V14.3256C12.0473 14.6583 12.3172 14.9282 12.6498 14.9282C12.9826 14.9282 13.2524 14.6583 13.2524 14.3256V12.6941C13.2524 12.3613 12.9826 12.0916 12.6498 12.0916Z" fill="white"/>
<path d="M10.2832 12.1016C9.95039 12.1016 9.68066 12.3715 9.68066 12.7041V14.3357C9.68066 14.6683 9.95039 14.9382 10.2832 14.9382C10.616 14.9382 10.8857 14.6683 10.8857 14.3357V12.7041C10.8857 12.3715 10.616 12.1016 10.2832 12.1016Z" fill="white"/>
<path d="M7.91652 8.47968C7.58372 8.47968 7.31399 8.74956 7.31399 9.08221V10.7137C7.31399 11.0464 7.58372 11.3163 7.91652 11.3163C8.24917 11.3163 8.51905 11.0464 8.51905 10.7137V9.08221C8.51905 8.74956 8.24917 8.47968 7.91652 8.47968Z" fill="white"/>
<path d="M12.6498 8.47968C12.3172 8.47968 12.0473 8.74956 12.0473 9.08221V10.7137C12.0473 11.0464 12.3172 11.3163 12.6498 11.3163C12.9826 11.3163 13.2524 11.0464 13.2524 10.7137V9.08221C13.2524 8.74956 12.9826 8.47968 12.6498 8.47968Z" fill="white"/>
<path d="M10.2832 8.48972C9.95039 8.48972 9.68066 8.7596 9.68066 9.09225V10.7238C9.68066 11.0566 9.95039 11.3263 10.2832 11.3263C10.616 11.3263 10.8857 11.0566 10.8857 10.7238V9.09225C10.8857 8.7596 10.616 8.48972 10.2832 8.48972Z" fill="white"/>
<path d="M7.91652 4.86575C7.58372 4.86575 7.31399 5.13548 7.31399 5.46828V7.09966C7.31399 7.43247 7.58372 7.70219 7.91652 7.70219C8.24917 7.70219 8.51905 7.43247 8.51905 7.09966V5.46828C8.51905 5.13548 8.24917 4.86575 7.91652 4.86575Z" fill="white"/>
<path d="M12.6498 3.25727C12.3172 3.25727 12.0473 3.527 12.0473 3.8598V7.09966C12.0473 7.43246 12.3172 7.70219 12.6498 7.70219C12.9826 7.70219 13.2524 7.43246 13.2524 7.09966V3.8598C13.2524 3.527 12.9826 3.25727 12.6498 3.25727Z" fill="white"/>
<path d="M10.2832 4.07148C9.95039 4.07148 9.68066 4.34136 9.68066 4.67401V7.1097C9.68066 7.44251 9.95039 7.71223 10.2832 7.71223C10.616 7.71223 10.8857 7.44251 10.8857 7.1097V4.67401C10.8857 4.34136 10.616 4.07148 10.2832 4.07148Z" fill="white"/>
<path d="M16.9094 12.1016C16.5766 12.1016 16.3069 12.3715 16.3069 12.7041V14.3357C16.3069 14.6683 16.5766 14.9382 16.9094 14.9382C17.2421 14.9382 17.512 14.6683 17.512 14.3357V12.7041C17.512 12.3715 17.2421 12.1016 16.9094 12.1016Z" fill="white"/>
<path d="M16.9094 7.2834C16.5766 7.2834 16.3069 7.55328 16.3069 7.88593V10.7238C16.3069 11.0566 16.5766 11.3263 16.9094 11.3263C17.2421 11.3263 17.512 11.0566 17.512 10.7238V7.88593C17.512 7.55328 17.2421 7.2834 16.9094 7.2834Z" fill="white"/>
<path d="M3.65692 14.74C3.98972 14.74 4.25945 14.4703 4.25945 14.1375V11.0585C4.25945 10.7257 3.98972 10.4559 3.65692 10.4559C3.32427 10.4559 3.05439 10.7257 3.05439 11.0585V14.1375C3.05439 14.4703 3.32427 14.74 3.65692 14.74Z" fill="white"/>
</svg>
