<svg width="27" height="29" viewBox="0 0 27 29" fill="none" xmlns="http://www.w3.org/2000/svg">
<path d="M26.1527 28.9204C26.6205 28.9203 26.9996 28.5413 26.9996 28.0734V0.846952C26.9994 0.379293 26.6204 0.000111675 26.1527 0H0.846952C0.379166 0 0.000252231 0.379224 0 0.846952V28.0734C0 28.5414 0.379011 28.9204 0.846952 28.9204H26.1527ZM1.6939 1.69491H25.3047V27.2265H1.6939V1.69491Z" fill="white"/>
<path d="M19.8262 28.9204C20.2941 28.9204 20.6731 28.5414 20.6731 28.0735V7.23038C20.6731 6.76247 20.2941 6.38348 19.8262 6.38343H7.17332C6.70538 6.38343 6.32637 6.76244 6.32637 7.23038V28.0735C6.32637 28.5414 6.70538 28.9204 7.17332 28.9204H19.8262ZM8.02027 8.07733H18.9792V27.2265H8.02027V8.07733Z" fill="white"/>
<path d="M12.6528 7.23038V28.0735C12.6528 28.5414 13.0318 28.9204 13.4997 28.9204C13.9677 28.9204 14.3467 28.5414 14.3467 28.0735V7.23038C14.3467 6.76244 13.9677 6.38343 13.4997 6.38343C13.0318 6.38343 12.6528 6.76244 12.6528 7.23038Z" fill="white"/>
<path d="M14.4038 4.91405C14.8716 4.91389 15.2507 4.53494 15.2507 4.0671C15.2507 3.59926 14.8716 3.22031 14.4038 3.22015H12.596C12.128 3.22015 11.749 3.59916 11.749 4.0671C11.749 4.53504 12.128 4.91405 12.596 4.91405H14.4038Z" fill="white"/>
<path d="M19.8264 4.91405C20.2942 4.91389 20.6734 4.53494 20.6734 4.0671C20.6734 3.59926 20.2942 3.22031 19.8264 3.22015H18.0186C17.5506 3.22015 17.1716 3.59916 17.1716 4.0671C17.1716 4.53504 17.5506 4.91405 18.0186 4.91405H19.8264Z" fill="white"/>
<path d="M8.98116 4.91405C9.44896 4.91389 9.82811 4.53494 9.82811 4.0671C9.82811 3.59926 9.44896 3.22031 8.98116 3.22015H7.17332C6.70538 3.22015 6.32637 3.59916 6.32637 4.0671C6.32637 4.53504 6.70538 4.91405 7.17332 4.91405H8.98116Z" fill="white"/>
<path d="M7.17288 25.2489C7.64082 25.2489 8.02084 24.8698 8.02084 24.4019C8.02084 23.934 7.64082 23.555 7.17288 23.555H0.846952C0.379011 23.555 0 23.934 0 24.4019C0 24.8698 0.379011 25.2489 0.846952 25.2489H7.17288Z" fill="white"/>
<path d="M26.152 25.2489C26.62 25.2489 27 24.8698 27 24.4019C27 23.934 26.62 23.555 26.152 23.555H19.8261C19.3582 23.555 18.9792 23.934 18.9792 24.4019C18.9792 24.8698 19.3582 25.2489 19.8261 25.2489H26.152Z" fill="white"/>
</svg>
