<svg width="27" height="27" viewBox="0 0 27 27" fill="none" xmlns="http://www.w3.org/2000/svg">
<path d="M13.5 9.54486C13.0632 9.54486 12.709 9.89902 12.709 10.3359V11.9179C12.709 12.3547 13.0632 12.7089 13.5 12.7089C13.9369 12.7089 14.2911 12.3547 14.2911 11.9179V10.3359C14.2911 9.89902 13.9369 9.54486 13.5 9.54486Z" fill="white"/>
<path d="M13.5 14.2909C13.0632 14.2909 12.709 14.6451 12.709 15.0819V16.664C12.709 17.1008 13.0632 17.455 13.5 17.455C13.9369 17.455 14.2911 17.1008 14.2911 16.664V15.0819C14.2911 14.6451 13.9369 14.2909 13.5 14.2909Z" fill="white"/>
<path d="M13.5 19.037C13.0632 19.037 12.709 19.3912 12.709 19.828V21.41C12.709 21.8469 13.0632 22.201 13.5 22.201C13.9369 22.201 14.2911 21.8469 14.2911 21.41V19.828C14.2911 19.3912 13.9369 19.037 13.5 19.037Z" fill="white"/>
<path d="M13.5 23.7831C13.0632 23.7831 12.709 24.1372 12.709 24.5741V26.2088C12.709 26.6457 13.0632 26.9998 13.5 26.9998C13.9369 26.9998 14.2911 26.6457 14.2911 26.2088V24.5741C14.2911 24.1372 13.9369 23.7831 13.5 23.7831Z" fill="white"/>
<path d="M18.2461 7.96284C17.8093 7.96284 17.4551 8.317 17.4551 8.75385V18.246C17.4551 18.6828 17.8093 19.037 18.2461 19.037C18.683 19.037 19.0371 18.6828 19.0371 18.246V14.2909H22.2012C23.9458 14.2909 25.3652 12.8715 25.3652 11.1269C25.3652 9.38223 23.9458 7.96284 22.2012 7.96284H18.2461ZM23.7832 11.1269C23.7832 11.9992 23.0735 12.7089 22.2012 12.7089H19.0371V9.54486H22.2012C23.0735 9.54486 23.7832 10.2546 23.7832 11.1269Z" fill="white"/>
<path d="M10.2834 1.34682e-06H0.791288C0.354439 1.34682e-06 0.000275971 0.354164 0.000275971 0.791014C0.000275971 1.22786 0.354439 1.58203 0.791288 1.58203H10.2834C10.7203 1.58203 11.0745 1.22786 11.0745 0.791014C11.0745 0.354164 10.7203 1.34682e-06 10.2834 1.34682e-06Z" fill="white"/>
<path d="M16.7168 1.58203H26.209C26.6458 1.58203 27 1.22786 27 0.791013C27 0.354163 26.6458 0 26.209 0H16.7168C16.28 0 15.9258 0.354163 15.9258 0.791013C15.9258 1.22786 16.28 1.58203 16.7168 1.58203Z" fill="white"/>
<path d="M10.2833 25.4178H0.791134C0.354284 25.4178 0.000121313 25.772 0.000121313 26.2088C0.000121313 26.6457 0.354284 26.9998 0.791134 26.9998H10.2833C10.7201 26.9998 11.0743 26.6457 11.0743 26.2088C11.0743 25.772 10.7201 25.4178 10.2833 25.4178Z" fill="white"/>
<path d="M11.0431 6.95363C10.942 6.09074 10.5888 5.35231 9.98732 4.75414C8.50169 3.27637 6.01981 3.2143 5.53656 3.21684C5.05456 3.21415 2.57263 3.27632 1.087 4.75409C0.485624 5.3523 0.132358 6.09074 0.0312665 6.95363C-0.00258882 7.0716 4.78911e-05 7.09997 4.78911e-05 7.48372V21.4101C4.78911e-05 22.7186 1.06459 23.7831 2.37309 23.7831H8.70119C10.0097 23.7831 11.0742 22.7186 11.0742 21.4101V7.48372C11.0743 7.10076 11.077 7.07197 11.0431 6.95363ZM1.58213 12.2369C1.97199 11.8975 3.12323 11.1269 5.53719 11.1269C7.95115 11.1269 9.10239 11.8975 9.49225 12.2369V16.664C9.49225 17.9725 8.42771 19.037 7.11921 19.037H3.95516C2.64667 19.037 1.58213 17.9725 1.58213 16.664V12.2369ZM5.50402 4.79875C5.51209 4.79875 5.52026 4.79875 5.52817 4.79881H5.5461C5.55412 4.79875 5.56213 4.79875 5.57025 4.79875C6.40609 4.79875 8.01585 5.02456 8.87157 5.87574C9.02524 6.02862 9.14958 6.19658 9.24572 6.38089H8.70113C8.26428 6.38089 7.91012 6.73505 7.91012 7.1719C7.91012 7.60875 8.26428 7.96291 8.70113 7.96291H9.49215V10.3508C8.64687 9.92694 7.3754 9.54494 5.53708 9.54494C3.69877 9.54494 2.4273 9.92694 1.58202 10.3508V7.96286H2.37303C2.80988 7.96286 3.16405 7.6087 3.16405 7.17185C3.16405 6.735 2.80988 6.38083 2.37303 6.38083H1.82855C1.92469 6.19653 2.04903 6.02857 2.2027 5.87569C3.05847 5.02451 4.66823 4.79875 5.50402 4.79875ZM8.70124 22.2011H2.37314C1.93697 22.2011 1.58213 21.8462 1.58213 21.4101V19.8259C2.24362 20.3236 3.06549 20.6191 3.95516 20.6191H7.11921C8.00889 20.6191 8.83075 20.3236 9.49225 19.8259V21.4101C9.49225 21.8462 9.1374 22.2011 8.70124 22.2011Z" fill="white"/>
<path d="M13.5 4.7988C13.0632 4.7988 12.709 5.15296 12.709 5.58981V7.17184C12.709 7.60869 13.0632 7.96285 13.5 7.96285C13.9369 7.96285 14.2911 7.60869 14.2911 7.17184V5.58981C14.2911 5.15296 13.9369 4.7988 13.5 4.7988Z" fill="white"/>
<path d="M13.5 0C13.0632 0 12.709 0.354163 12.709 0.791013V2.42577C12.709 2.86262 13.0632 3.21678 13.5 3.21678C13.9369 3.21678 14.2911 2.86262 14.2911 2.42577V0.791013C14.2911 0.354163 13.9369 0 13.5 0Z" fill="white"/>
<path d="M26.209 25.4178H16.7168C16.28 25.4178 15.9258 25.772 15.9258 26.2088C15.9258 26.6457 16.28 26.9998 16.7168 26.9998H26.209C26.6458 26.9998 27 26.6457 27 26.2088C27 25.772 26.6458 25.4178 26.209 25.4178Z" fill="white"/>
</svg>
