<svg width="27" height="27" viewBox="0 0 27 27" fill="none" xmlns="http://www.w3.org/2000/svg">
<path d="M26.209 4.85123H20.6191V3.21647C20.6191 2.77962 20.265 2.42545 19.8281 2.42545H16.8045C16.728 2.15181 16.5145 1.94625 16.2491 1.87469L14.9164 1.51505L14.1627 0.358686C13.8509 -0.119562 13.1491 -0.119562 12.8373 0.358686L12.0836 1.51505L10.7509 1.87464C10.4862 1.94604 10.2722 2.15107 10.1955 2.4254H7.17188C6.73502 2.4254 6.38086 2.77956 6.38086 3.21641V4.85118H0.791016C0.354164 4.85118 0 5.20534 0 5.6422V26.209C0 26.6458 0.354164 27 0.791016 27H26.209C26.6458 27 27 26.6458 27 26.209V5.64225C27 5.2054 26.6458 4.85123 26.209 4.85123ZM20.6191 12.7088H25.418V14.2908H20.6191V12.7088ZM20.6191 11.1267V9.5447H25.418V11.1267H20.6191ZM20.6191 15.8729H25.418V17.4549H20.6191V15.8729ZM25.418 6.43332V7.96261H20.6191V6.43332H25.418ZM13.5 2.23914C13.9574 2.94088 13.8819 2.87454 14.6655 3.08595C14.1396 3.73785 14.1793 3.64551 14.2204 4.45609C13.4435 4.15946 13.5565 4.15946 12.7797 4.45609C12.8221 3.61952 12.8441 3.7176 12.3345 3.08595C13.1389 2.86889 13.045 2.93708 13.5 2.23914ZM6.38086 14.2908H1.58203V12.7088H6.38086V14.2908ZM6.38086 11.1267H1.58203V9.5447H6.38086V11.1267ZM1.58203 15.8729H6.38086V17.4549H1.58203V15.8729ZM6.38086 6.43332V7.96261H1.58203V6.43332H6.38086ZM4.79883 25.3652V22.9921C4.79883 22.556 5.15368 22.2011 5.58984 22.2011C6.02601 22.2011 6.38086 22.556 6.38086 22.9921V25.3652H4.79883ZM15.873 25.418H11.127V24.5742C11.127 23.2657 12.1915 22.2011 13.5 22.2011C14.8085 22.2011 15.873 23.2657 15.873 24.5742V25.418ZM20.6191 25.3652V22.9921C20.6191 22.556 20.974 22.2011 21.4102 22.2011C21.8463 22.2011 22.2012 22.556 22.2012 22.9921V25.3652H20.6191ZM25.418 25.418H23.7832V22.9921C23.7832 21.6836 22.7187 20.619 21.4102 20.619C20.1017 20.619 19.0371 21.6836 19.0371 22.9921V25.418H17.4551V24.5742C17.4551 22.3933 15.6808 20.6191 13.5 20.6191C11.3192 20.6191 9.54492 22.3934 9.54492 24.5742V25.418H7.96289V22.9921C7.96289 21.6836 6.89834 20.619 5.58984 20.619C4.28135 20.619 3.2168 21.6836 3.2168 22.9921V25.418H1.58203V19.037H7.17188C7.60873 19.037 7.96289 18.6828 7.96289 18.246V4.00748H11.0452L11.2081 4.20935L11.1382 5.58798C11.1094 6.15815 11.677 6.57053 12.2104 6.36698L13.5 5.87454L14.7896 6.36703C15.3216 6.57027 15.8907 6.15904 15.8618 5.58804L15.7919 4.2094L15.9548 4.00754H19.0371V18.246C19.0371 18.6829 19.3913 19.037 19.8281 19.037H25.418V25.418Z" fill="white"/>
<path d="M10.3359 7.96231C9.89905 7.96231 9.54488 8.31648 9.54488 8.75333V9.80801C9.54488 10.2449 9.89905 10.599 10.3359 10.599C10.7728 10.599 11.1269 10.2449 11.1269 9.80801V8.75333C11.1269 8.31648 10.7728 7.96231 10.3359 7.96231Z" fill="white"/>
<path d="M13.5 7.96231C13.0631 7.96231 12.709 8.31648 12.709 8.75333V9.80801C12.709 10.2449 13.0631 10.599 13.5 10.599C13.9368 10.599 14.291 10.2449 14.291 9.80801V8.75333C14.291 8.31648 13.9368 7.96231 13.5 7.96231Z" fill="white"/>
<path d="M16.6641 7.96231C16.2272 7.96231 15.873 8.31648 15.873 8.75333V9.80801C15.873 10.2449 16.2272 10.599 16.6641 10.599C17.1009 10.599 17.4551 10.2449 17.4551 9.80801V8.75333C17.4551 8.31648 17.1009 7.96231 16.6641 7.96231Z" fill="white"/>
<path d="M10.3359 12.1811C9.89905 12.1811 9.54488 12.5353 9.54488 12.9721V14.0268C9.54488 14.4637 9.89905 14.8178 10.3359 14.8178C10.7728 14.8178 11.1269 14.4637 11.1269 14.0268V12.9721C11.1269 12.5353 10.7728 12.1811 10.3359 12.1811Z" fill="white"/>
<path d="M13.5 12.1811C13.0631 12.1811 12.709 12.5353 12.709 12.9721V14.0268C12.709 14.4637 13.0631 14.8178 13.5 14.8178C13.9368 14.8178 14.291 14.4637 14.291 14.0268V12.9721C14.291 12.5353 13.9368 12.1811 13.5 12.1811Z" fill="white"/>
<path d="M16.6641 12.1811C16.2272 12.1811 15.873 12.5353 15.873 12.9721V14.0268C15.873 14.4637 16.2272 14.8178 16.6641 14.8178C17.1009 14.8178 17.4551 14.4637 17.4551 14.0268V12.9721C17.4551 12.5353 17.1009 12.1811 16.6641 12.1811Z" fill="white"/>
<path d="M10.3359 16.3999C9.89905 16.3999 9.54488 16.7541 9.54488 17.1909V18.2456C9.54488 18.6825 9.89905 19.0366 10.3359 19.0366C10.7728 19.0366 11.1269 18.6825 11.1269 18.2456V17.1909C11.1269 16.7541 10.7728 16.3999 10.3359 16.3999Z" fill="white"/>
<path d="M13.5 16.3999C13.0631 16.3999 12.709 16.7541 12.709 17.1909V18.2456C12.709 18.6825 13.0631 19.0366 13.5 19.0366C13.9368 19.0366 14.291 18.6825 14.291 18.2456V17.1909C14.291 16.7541 13.9368 16.3999 13.5 16.3999Z" fill="white"/>
<path d="M16.6641 16.3999C16.2272 16.3999 15.873 16.7541 15.873 17.1909V18.2456C15.873 18.6825 16.2272 19.0366 16.6641 19.0366C17.1009 19.0366 17.4551 18.6825 17.4551 18.2456V17.1909C17.4551 16.7541 17.1009 16.3999 16.6641 16.3999Z" fill="white"/>
</svg>
