<svg width="27" height="27" viewBox="0 0 27 27" fill="none" xmlns="http://www.w3.org/2000/svg">
<path d="M8.01565 15.9785C9.84754 15.9785 11.3379 14.4881 11.3379 12.6563C11.3379 10.8244 9.84754 9.33399 8.01565 9.33399C6.18376 9.33399 4.69338 10.8244 4.69338 12.6563C4.69338 14.4881 6.18371 15.9785 8.01565 15.9785ZM8.01565 10.916C8.9752 10.916 9.75588 11.6967 9.75588 12.6563C9.75588 13.6158 8.9752 14.3965 8.01565 14.3965C7.05609 14.3965 6.27541 13.6158 6.27541 12.6563C6.27541 11.6967 7.05604 10.916 8.01565 10.916Z" fill="white"/>
<path d="M26.209 21.9902H24.9875C23.9977 21.9902 23.1029 21.3663 22.7608 20.4376L22.0958 18.6326C21.5899 17.2594 20.688 16.0912 19.4875 15.2541C18.2871 14.417 16.879 13.9746 15.4156 13.9746H14.7129V7.96289H15.1875C15.5159 7.96289 15.8101 7.76002 15.9268 7.45316C16.0436 7.1463 15.9586 6.79915 15.7133 6.58088L8.54145 0.200029C8.24245 -0.0659628 7.79194 -0.0667538 7.49204 0.198131L0.267436 6.57899C0.0209033 6.79667 -0.0651591 7.14419 0.0512256 7.45179C0.167558 7.75939 0.462132 7.96289 0.791036 7.96289H1.31838V17.3496H0.791036C0.354184 17.3496 2.05525e-05 17.7038 2.05525e-05 18.1406V21.0937C2.05525e-05 21.5306 0.354184 21.8848 0.791036 21.8848H1.31838V26.209C1.31838 26.6458 1.67254 27 2.10939 27H5.06252C5.49937 27 5.85353 26.6458 5.85353 26.209V21.8848H10.1777V26.209C10.1777 26.6458 10.5319 27 10.9688 27H13.9219C14.3587 27 14.7129 26.6458 14.7129 26.209V21.8848H15.1875C15.6244 21.8848 15.9785 21.5306 15.9785 21.0937V19.1074C16.586 19.3555 17.0804 19.8504 17.3141 20.489L17.9871 22.3278C18.4911 23.7046 19.3927 24.8763 20.5944 25.7162C21.7961 26.5561 23.2063 27 24.6725 27H26.209C26.6458 27 27 26.6458 27 26.209V22.7812C27 22.3444 26.6458 21.9902 26.209 21.9902ZM14.3965 20.3027H1.58205V18.9316H14.3965V20.3027ZM8.01374 1.84808L13.1084 6.38086H2.88153L8.01374 1.84808ZM13.1309 7.96289V17.3496H2.90041V7.96289H13.1309ZM4.2715 25.418H2.90041V21.8848H4.2715V25.418ZM13.1309 25.418H11.7598V21.8848H13.1309V25.418ZM25.418 25.418H24.6725C22.3579 25.418 20.2683 23.9576 19.4727 21.784L18.7997 19.9453C18.2315 18.3927 16.739 17.3496 15.0856 17.3496H14.7129V15.5566H15.4156C17.7249 15.5566 19.8129 17.0126 20.6113 19.1795L21.2763 20.9845C21.8465 22.5323 23.3379 23.5723 24.9875 23.5723H25.418V25.418Z" fill="white"/>
</svg>
