<svg width="27" height="27" viewBox="0 0 27 27" fill="none" xmlns="http://www.w3.org/2000/svg">
<path d="M26.1812 25.418H25.3904V8.39246C26.3544 7.8137 27 6.76466 27 5.56907C27 5.01841 26.86 4.47304 26.5953 3.99199L24.8118 0.437379C24.6779 0.16933 24.404 0 24.1044 0H3.00628C2.71382 0 2.44524 0.16142 2.30797 0.41966L0.360387 4.09277C0.130148 4.54834 0.0085957 5.05696 0.0085957 5.56907C0.0085957 6.74942 0.638139 7.78639 1.58177 8.36963V25.418H0.79091C0.354111 25.418 0 25.7721 0 26.209C0 26.6458 0.354111 27 0.79091 27H26.1813C26.6181 27 26.9722 26.6458 26.9722 26.209C26.9722 25.7721 26.618 25.418 26.1812 25.418ZM3.48152 1.58203H23.6155L25.2543 4.84239C25.363 5.06957 25.4182 5.31346 25.4182 5.56907C25.4182 6.51602 24.6332 7.28641 23.6681 7.28641C22.7031 7.28641 21.918 6.51602 21.918 5.56907C21.918 5.13222 21.5639 4.77805 21.1272 4.77805C20.6904 4.77805 20.3363 5.13222 20.3363 5.56907C20.3363 6.51602 19.5513 7.28641 18.5863 7.28641C17.6212 7.28641 16.8362 6.51602 16.8362 5.56907C16.8362 5.13222 16.4821 4.77805 16.0453 4.77805C15.6085 4.77805 15.2545 5.13222 15.2545 5.56907C15.2545 6.51602 14.4694 7.28641 13.5044 7.28641C12.5394 7.28641 11.7543 6.51602 11.7543 5.56907C11.7543 5.13222 11.4002 4.77805 10.9634 4.77805C10.5266 4.77805 10.1726 5.13222 10.1726 5.56907C10.1726 6.51602 9.38746 7.28641 8.42247 7.28641C7.45748 7.28641 6.67243 6.51602 6.67243 5.56907C6.67243 5.13222 6.31832 4.77805 5.88157 4.77805C5.44482 4.77805 5.09071 5.13222 5.09071 5.56907C5.09071 6.51602 4.3056 7.28641 3.34062 7.28641C2.37563 7.28641 1.59052 6.51602 1.59052 5.56907C1.59052 5.28657 1.65786 5.01789 1.7907 4.7704L3.48152 1.58203ZM3.16354 8.86375C3.22212 8.86681 3.28108 8.8685 3.34041 8.8685C4.35755 8.8685 5.26975 8.41477 5.88136 7.70107C6.49303 8.41483 7.40517 8.8685 8.42231 8.8685C9.43945 8.8685 10.3517 8.41477 10.9633 7.70101C11.5749 8.41477 12.4871 8.8685 13.5042 8.8685C14.5214 8.8685 15.4336 8.41477 16.0452 7.70101C16.6568 8.41477 17.569 8.8685 18.5861 8.8685C19.6033 8.8685 20.5154 8.41477 21.127 7.70107C21.7387 8.41483 22.6508 8.8685 23.668 8.8685C23.7151 8.8685 23.7618 8.86692 23.8085 8.86497V25.418H3.16354V8.86375Z" fill="white"/>
<path d="M13.5014 10.2282C10.491 10.2282 8.04188 12.6776 8.04188 15.6885C8.04188 16.9451 8.85526 18.6689 10.5286 20.9584C11.7078 22.572 12.8691 23.8444 12.918 23.8978C13.0678 24.0614 13.2795 24.1547 13.5014 24.1547C13.7232 24.1547 13.9349 24.0614 14.0847 23.8978C14.1336 23.8444 15.2949 22.572 16.4742 20.9584C18.1475 18.6689 18.9609 16.9451 18.9609 15.6885C18.9609 12.6776 16.5117 10.2282 13.5014 10.2282ZM13.5012 22.1704C11.806 20.1964 9.62365 17.1636 9.62365 15.6885C9.62365 13.5499 11.3632 11.8102 13.5014 11.8102C15.6395 11.8102 17.3791 13.5499 17.3791 15.6885C17.3791 17.1616 15.1965 20.1954 13.5012 22.1704Z" fill="white"/>
<path d="M13.5014 13.3922C12.2354 13.3922 11.2055 14.4223 11.2055 15.6885C11.2055 16.9546 12.2354 17.9847 13.5014 17.9847C14.7674 17.9847 15.7973 16.9546 15.7973 15.6885C15.7973 14.4223 14.7674 13.3922 13.5014 13.3922ZM13.5014 16.4027C13.1076 16.4027 12.7872 16.0823 12.7872 15.6885C12.7872 15.2946 13.1076 14.9742 13.5014 14.9742C13.8952 14.9742 14.2155 15.2946 14.2155 15.6885C14.2155 16.0823 13.8951 16.4027 13.5014 16.4027Z" fill="white"/>
</svg>
