<svg width="27" height="23" viewBox="0 0 27 23" fill="none" xmlns="http://www.w3.org/2000/svg">
<path d="M26.6715 0.14931C26.4653 0.000652241 26.2001 -0.039795 25.9589 0.0405721C24.2937 0.595601 22.9165 1.67592 21.9854 3.06093C19.9303 1.10438 17.1829 1.93561e-05 14.291 1.93561e-05C11.9468 1.93561e-05 9.72422 0.730549 7.91016 1.98874V0.791035C7.91016 0.354183 7.55599 1.93561e-05 7.11914 1.93561e-05C6.68229 1.93561e-05 6.32812 0.354183 6.32812 0.791035V5.53713C6.32812 5.97329 5.97328 6.32814 5.53711 6.32814H4.74609V0.791035C4.74609 0.354183 4.39193 1.93561e-05 3.95508 1.93561e-05C3.51823 1.93561e-05 3.16406 0.354183 3.16406 0.791035V6.32814H2.37305C1.93688 6.32814 1.58203 5.97329 1.58203 5.53713V0.791035C1.58203 0.354183 1.22787 1.93561e-05 0.791016 1.93561e-05C0.354164 1.93561e-05 0 0.354183 0 0.791035V5.53713C0 6.84563 1.06455 7.91018 2.37305 7.91018H3.16406V11.0742H2.37305C1.9362 11.0742 1.58203 11.4284 1.58203 11.8653V19.7754C1.58203 21.0839 2.64658 22.1485 3.95508 22.1485C5.26358 22.1485 6.32812 21.0839 6.32812 19.7754V18.8166C8.48681 21.0079 11.3812 22.1485 14.291 22.1485C17.2 22.1485 20.0947 21.0084 22.2539 18.8166V19.7754C22.2539 21.0839 23.3185 22.1485 24.627 22.1485C25.9355 22.1485 27 21.0839 27 19.7754V0.791035C27 0.53675 26.8778 0.298021 26.6715 0.14931ZM4.74609 19.7754C4.74609 20.2116 4.39124 20.5664 3.95508 20.5664C3.51891 20.5664 3.16406 20.2116 3.16406 19.7754V12.6563C3.73618 12.6563 4.18078 12.6563 4.74609 12.6563V19.7754ZM22.2539 16.3213C20.5064 18.945 17.4769 20.5664 14.291 20.5664C11.1052 20.5664 8.07558 18.945 6.32812 16.3213V11.8653C6.32812 11.4284 5.97396 11.0742 5.53711 11.0742H4.74609V7.91018H5.53711C6.84561 7.91018 7.91016 6.84563 7.91016 5.53713V4.0004C9.637 2.46013 11.9431 1.58205 14.291 1.58205C16.9277 1.58205 19.4234 2.64913 21.2145 4.52547C20.8626 5.41405 20.6719 6.37766 20.6719 7.37587V13.4473C20.6719 13.8841 21.026 14.2383 21.4629 14.2383H22.2539V16.3213ZM25.418 19.7754C25.418 20.2116 25.0631 20.5664 24.627 20.5664C24.1908 20.5664 23.8359 20.2116 23.8359 19.7754V14.2383H25.418V19.7754ZM25.418 12.6563H22.2539V7.37587C22.2539 5.14199 23.4646 3.08081 25.418 1.99844V12.6563Z" fill="white"/>
<path d="M18.9375 12.9153C19.059 12.2826 19.0694 11.6321 18.9683 10.9819C18.7501 9.57891 17.971 8.32736 16.8761 7.47802C18.1574 6.82285 19.0371 5.4902 19.0371 3.9551C19.0371 3.51825 18.6829 3.16409 18.2461 3.16409H16.6641C15.6009 3.16409 14.6352 3.58649 13.9237 4.27135C13.5027 3.60663 12.7613 3.16409 11.918 3.16409C10.6095 3.16409 9.54493 4.22864 9.54493 5.53713C9.54493 6.24388 9.85585 6.87907 10.3476 7.31418C10.0535 7.51757 9.77696 7.75055 9.52309 8.01249C8.22889 9.34809 7.69553 11.2484 8.09621 13.0959C8.50521 14.9813 9.98499 16.5752 11.8662 17.1566C12.5914 17.3807 13.2493 17.7417 13.8215 18.2293C15.8585 19.9652 19.0371 18.5215 19.0371 15.8203C19.0371 15.0515 18.6552 14.3848 18.9375 12.9153ZM16.6641 4.74612H17.3196C16.9931 5.66691 16.1133 6.32815 15.082 6.32815H14.4265C14.753 5.40735 15.6328 4.74612 16.6641 4.74612ZM11.918 4.74612C12.3541 4.74612 12.709 5.10097 12.709 5.53713C12.709 5.9733 12.3541 6.32815 11.918 6.32815C11.4818 6.32815 11.127 5.9733 11.127 5.53713C11.127 5.10097 11.4818 4.74612 11.918 4.74612ZM14.8477 17.0252C14.111 16.3974 13.2651 15.9331 12.3335 15.6451C10.9887 15.2295 9.93237 14.0972 9.64238 12.7605C9.34981 11.4116 9.72043 10.0823 10.6593 9.11337C11.4182 8.33021 12.4211 7.91044 13.4907 7.90971C13.4938 7.90971 13.4968 7.91018 13.5 7.91018H13.5169C15.5743 7.92189 17.1291 9.45018 17.4051 11.225C17.4782 11.695 17.471 12.1633 17.3839 12.6168C17.0538 14.3351 17.4551 15.388 17.4551 15.8203C17.4551 17.1727 15.8645 17.8917 14.8477 17.0252Z" fill="white"/>
<path d="M13.5 9.49221C12.1915 9.49221 11.127 10.5568 11.127 11.8653C11.127 13.1738 12.1915 14.2383 13.5 14.2383C14.8085 14.2383 15.8731 13.1738 15.8731 11.8653C15.8731 10.5568 14.8085 9.49221 13.5 9.49221ZM13.5 12.6563C13.0638 12.6563 12.709 12.3014 12.709 11.8653C12.709 11.4291 13.0638 11.0742 13.5 11.0742C13.9362 11.0742 14.291 11.4291 14.291 11.8653C14.291 12.3014 13.9362 12.6563 13.5 12.6563Z" fill="white"/>
</svg>
