<svg width="27" height="27" viewBox="0 0 27 27" fill="none" xmlns="http://www.w3.org/2000/svg">
<path d="M4.93997 18.9551H1.58347V12.5739C1.58347 12.1371 1.22935 11.783 0.792553 11.783C0.355755 11.783 0.00163446 12.1371 0.00163446 12.5739V26.2057C0.00163446 26.6425 0.355755 26.9966 0.792553 26.9966C1.22935 26.9966 1.58347 26.6425 1.58347 26.2057V23.5743H5.17461V26.2057C5.17461 26.6425 5.52873 26.9966 5.96553 26.9966C6.40233 26.9966 6.75645 26.6425 6.75645 26.2057V20.7717C6.7565 19.77 5.94159 18.9551 4.93997 18.9551ZM1.58347 21.9924V20.5369H4.93992C5.06931 20.5369 5.17461 20.6422 5.17461 20.7717V21.9924H1.58347Z" fill="white"/>
<path d="M26.2074 11.783C25.7706 11.783 25.4165 12.1371 25.4165 12.5739V18.9551H22.1432C21.1416 18.9551 20.3267 19.77 20.3267 20.7717V26.2058C20.3267 26.6426 20.6808 26.9967 21.1176 26.9967C21.5544 26.9967 21.9085 26.6426 21.9085 26.2058V23.5743H25.4165V26.2058C25.4165 26.6426 25.7706 26.9967 26.2074 26.9967C26.6442 26.9967 26.9983 26.6426 26.9983 26.2058V12.5739C26.9983 12.1371 26.6442 11.783 26.2074 11.783ZM21.9085 21.9924V20.7717C21.9085 20.6422 22.0138 20.5369 22.1432 20.5369H25.4165V21.9924H21.9085Z" fill="white"/>
<path d="M19.952 14.7877H7.04803C6.61123 14.7877 6.25711 15.1418 6.25711 15.5786C6.25711 17.5515 7.8622 19.1566 9.83512 19.1566H12.7406V25.4148H11.2719C10.8351 25.4148 10.4809 25.7689 10.4809 26.2057C10.4809 26.6425 10.8351 26.9966 11.2719 26.9966H15.7913C16.2281 26.9966 16.5822 26.6425 16.5822 26.2057C16.5822 25.7689 16.2281 25.4148 15.7913 25.4148H14.3225V19.1566H15.5974C15.6017 19.1567 15.6059 19.1567 15.6102 19.1567H17.1649C19.1378 19.1567 20.7429 17.5516 20.7429 15.5786C20.7429 15.1418 20.3888 14.7877 19.952 14.7877ZM17.1649 17.5749C16.1327 17.5748 10.9643 17.5747 9.83512 17.5748C9.0152 17.5748 8.30923 17.0779 8.0023 16.3695L18.9976 16.3696C18.6908 17.078 17.9848 17.5749 17.1649 17.5749Z" fill="white"/>
<path d="M27 4.31768C27 4.31731 26.9999 4.31699 26.9999 4.31667V2.2586C26.9999 1.15442 26.2724 0.237592 25.2307 0.0291058C25.1797 0.0189293 25.1279 0.013762 25.0759 0.0137093L1.95141 0C1.9088 0 1.86625 0.00342731 1.82423 0.0102819C0.75016 0.18518 0 1.0902 0 2.21093V7.68266C0 9.28918 1.30502 10.5962 2.9091 10.5962C3.74342 10.5962 4.49627 10.2421 5.02724 9.67667C5.55821 10.2421 6.31105 10.5962 7.14542 10.5962C7.97973 10.5962 8.73258 10.2421 9.26355 9.67673C9.79452 10.2421 10.5474 10.5962 11.3816 10.5962C12.216 10.5962 12.9688 10.2421 13.4998 9.67662C14.0308 10.2421 14.7837 10.5962 15.618 10.5962C16.4524 10.5962 17.2053 10.242 17.7362 9.67652C18.2672 10.242 19.0202 10.5962 19.8545 10.5962C20.6888 10.5962 21.4417 10.2421 21.9727 9.67662C22.5036 10.2421 23.2565 10.5962 24.0908 10.5962C25.6949 10.5962 26.9999 9.28918 26.9999 7.68266V4.31873C27 4.31836 27 4.31805 27 4.31768ZM2.02802 1.58189L24.9815 1.59549C25.2525 1.67759 25.4181 1.92599 25.4181 2.2586V3.52681H1.58184V2.21093C1.58184 1.89098 1.75526 1.64954 2.02802 1.58189ZM2.9091 9.01441C2.17724 9.01441 1.58184 8.41701 1.58184 7.68272V5.10859H4.23632V7.68266C4.23632 8.417 3.64091 9.01441 2.9091 9.01441ZM7.14542 9.01441C6.41356 9.01441 5.81815 8.41701 5.81815 7.68272V5.10859H8.47263L8.47258 7.68266C8.47258 7.68335 8.47263 7.68403 8.47263 7.68472C8.47153 8.41806 7.8766 9.01441 7.14542 9.01441ZM11.3816 9.01441C10.6505 9.01441 10.0555 8.41811 10.0544 7.68477C10.0544 7.68409 10.0545 7.6834 10.0545 7.68272C10.0545 7.68203 10.0544 7.68135 10.0544 7.68066L10.0544 5.10859H12.7088V7.68166C12.7088 7.68203 12.7088 7.68235 12.7088 7.68266C12.7088 8.417 12.1134 9.01441 11.3816 9.01441ZM15.618 9.01441C14.8861 9.01441 14.2907 8.41701 14.2907 7.68272V5.10859H16.9455V7.6776C16.9455 7.67934 16.9452 7.68098 16.9452 7.68272C16.9452 8.41701 16.3498 9.01441 15.618 9.01441ZM19.8546 9.01441C19.1227 9.01441 18.5273 8.41701 18.5273 7.68272V5.10859H21.1818V7.68266C21.1818 8.417 20.5864 9.01441 19.8546 9.01441ZM24.091 9.01441C23.3591 9.01441 22.7637 8.41701 22.7637 7.68272C22.7637 7.68235 22.7636 7.68203 22.7636 7.68172V5.10859H25.4182V7.68266C25.4182 8.417 24.8228 9.01441 24.091 9.01441Z" fill="white"/>
</svg>
