<svg width="100" height="55" viewBox="0 0 100 55" fill="none" xmlns="http://www.w3.org/2000/svg">
<path d="M96.9886 31.4191H83.8236L74.4219 21.0936C73.527 20.1108 72.0228 19.9914 70.9842 20.8204L65.1515 25.4769L49.765 1.1728C49.3028 0.442674 48.4987 0 47.6346 0C46.7706 0 45.9665 0.442674 45.5042 1.1728L32.3661 21.9254L27.4401 14.7169C26.9702 14.0294 26.1911 13.6181 25.3581 13.6181C24.5252 13.6181 23.7463 14.0294 23.2762 14.7169L11.8625 31.4191H2.52155C1.12881 31.4191 0 32.5479 0 33.9406C0 35.3334 1.12881 36.4622 2.52155 36.4622H8.41609L6.4095 39.3981C5.62362 40.5479 5.91892 42.1169 7.06875 42.9028C7.50385 43.2003 7.9992 43.3427 8.48922 43.3427C9.29416 43.3427 10.0851 42.958 10.5734 42.2435L25.3584 20.6089L29.429 26.5657L13.8783 51.1292C13.1334 52.3059 13.4833 53.8634 14.66 54.6084C15.0786 54.8731 15.5451 54.9995 16.0065 54.9995C16.8417 54.9995 17.6593 54.5846 18.1392 53.8264L47.6349 7.23601L71.1985 44.4563C71.9432 45.6328 73.501 45.9827 74.6777 45.238C75.7485 44.56 76.1318 43.2096 75.6308 42.0852C75.5812 41.9743 75.5263 41.8645 75.4594 41.7588L67.8656 29.7638L72.2842 26.2362L89.1917 44.8052C89.6893 45.3518 90.3718 45.6291 91.0568 45.6291C91.6628 45.6291 92.2705 45.412 92.7538 44.9721C93.7835 44.0344 93.8583 42.4397 92.9208 41.41L88.4156 36.4622H96.9889C98.3817 36.4622 99.5105 35.3334 99.5105 33.9406C99.5105 32.5479 98.3814 31.4191 96.9886 31.4191Z" fill="#492F87"/>
</svg>
