<svg width="55" height="55" viewBox="0 0 55 55" fill="none" xmlns="http://www.w3.org/2000/svg">
<path d="M53.3885 22.7731C47.8965 22.7731 42.9799 25.2841 39.7261 29.2185H29.1115V15.2624C30.3204 15.147 31.5171 14.8969 32.6728 14.5117L37.1715 13.0124C41.5246 14.9594 46.5995 14.8629 50.8817 12.7228L50.8867 12.7203C51.3001 12.5139 51.6047 12.1396 51.7235 11.6927C51.8418 11.2462 51.7629 10.7699 51.5065 10.3856C47.1714 3.88232 39.9171 0 32.1012 0H23.0064C15.1906 0 7.93622 3.88232 3.60114 10.3856C3.34475 10.7699 3.26712 11.2466 3.38546 11.6935C3.50421 12.1404 3.81011 12.5151 4.22343 12.7216C8.50565 14.8629 13.5801 14.9598 17.9362 13.0124L22.4349 14.5121C23.5565 14.8856 24.7164 15.1323 25.8888 15.2519V29.2185H15.2741C12.0204 25.2846 7.1037 22.7731 1.61173 22.7731C0.721714 22.7731 0.000389132 23.4949 0.000389132 24.3845V40.4979C0.000389132 41.3879 0.721714 42.1092 1.61173 42.1092H5.44998L0.170335 52.6676C-0.227464 53.4637 0.0952231 54.4313 0.89124 54.8295C1.68852 55.2282 2.65574 54.9034 3.0527 54.109L8.05707 44.1007L13.061 54.109C13.4588 54.905 14.4269 55.2273 15.2229 54.8295C16.0189 54.4317 16.3412 53.4637 15.9434 52.6676L10.6642 42.1092H17.7247C18.6147 42.1092 19.336 41.3874 19.336 40.4979C19.336 39.9544 19.3104 39.4173 19.2622 38.8865H25.8888V51.7768H20.9473C20.0578 51.7768 19.336 52.4985 19.336 53.3881C19.336 54.2781 20.0578 54.9995 20.9473 54.9995H34.0529C34.9429 54.9995 35.6642 54.2781 35.6642 53.3881C35.6642 52.4985 34.9429 51.7768 34.0529 51.7768H29.1115V38.8853H35.7381C35.6898 39.4161 35.6642 39.9544 35.6642 40.4979C35.6642 41.3874 36.3856 42.1092 37.2756 42.1092H44.3361L39.0569 52.6676C38.659 53.4637 38.9813 54.4313 39.7773 54.8295C40.575 55.2282 41.5418 54.9034 41.9392 54.109L46.9432 44.1007L51.9475 54.109C52.3453 54.905 53.3134 55.2273 54.1094 54.8295C54.905 54.4317 55.2277 53.4637 54.8299 52.6676L49.5507 42.1092H53.3885C54.2785 42.1092 54.9999 41.3874 54.9999 40.4979V24.3845C54.9999 23.4945 54.2785 22.7731 53.3885 22.7731ZM47.641 10.5727C44.6055 11.5437 41.2674 11.3549 38.3498 10.0071C37.3393 7.29088 35.0386 4.9536 32.8847 3.23946C38.6553 3.46228 44.0075 6.13735 47.641 10.5727ZM7.46709 10.5723C11.0884 6.15203 16.4184 3.4799 22.1676 3.24198C20.0385 4.9557 17.7624 7.29256 16.757 10.0075C13.8403 11.3549 10.5026 11.5437 7.46709 10.5723ZM20.1241 10.3444C21.6515 7.36389 25.3945 4.6947 27.5064 3.45263C29.6461 4.69008 33.4411 7.35676 34.9819 10.3453L31.6539 11.4543C29.0099 12.3355 26.0978 12.3355 23.4537 11.4543L20.1241 10.3444ZM3.22306 38.8865V26.0848C9.93445 26.83 15.2791 32.1747 16.0244 38.8865H3.22306ZM18.6659 35.6638C18.3474 34.5405 17.9202 33.4613 17.397 32.4399H37.6033C37.08 33.4613 36.6529 34.5405 36.3344 35.6638H18.6659ZM51.7772 38.8865H38.9759C39.7211 32.1747 45.0658 26.83 51.7772 26.0848V38.8865Z" fill="#492F87"/>
</svg>
