<svg width="68" height="55" viewBox="0 0 68 55" fill="none" xmlns="http://www.w3.org/2000/svg">
<path d="M57.2475 0H9.82508C7.20046 0 4.73344 1.02191 2.87742 2.87793C1.02191 4.73344 0 7.20097 0 9.82508V20.0299C0 21.9903 0.674451 23.8422 1.91333 25.3267V45.1744C1.91333 50.592 6.32132 55 11.7384 55H55.3336C60.7513 55 65.1587 50.592 65.1587 45.1744V25.2638C66.3516 23.8084 67.0726 21.9452 67.0726 19.926V9.82508C67.0726 4.40747 62.6651 0 57.2475 0ZM22.9482 51.0695H18.4983V35.8401H22.9482V51.0695ZM61.2287 45.1744C61.2287 48.4254 58.5841 51.0695 55.3336 51.0695H26.8783V33.875C26.8783 32.7897 25.9986 31.91 24.9132 31.91H16.5333C15.4484 31.91 14.5682 32.7897 14.5682 33.875V51.0695H11.7384C8.48795 51.0695 5.84337 48.4254 5.84337 45.1744V27.9473C6.66622 28.199 7.53257 28.3249 8.41989 28.3106C10.8746 28.2696 13.0771 27.1239 14.5708 25.3518C16.0906 27.1597 18.3668 28.3116 20.908 28.3116C23.4364 28.3116 25.7023 27.171 27.2221 25.3779C28.742 27.171 31.0079 28.3116 33.5363 28.3116C36.0647 28.3116 38.3306 27.171 39.8504 25.3779C41.3703 27.171 43.6367 28.3116 46.1651 28.3116C48.6915 28.3116 50.9564 27.1725 52.4762 25.3815C52.6384 25.5723 52.8088 25.7581 52.9894 25.9357C54.5507 27.4713 56.6063 28.3121 58.7919 28.3116C58.839 28.3116 58.8865 28.3116 58.9341 28.3106C59.7309 28.2973 60.5005 28.1658 61.2292 27.936V45.1744H61.2287ZM63.1425 19.926C63.1425 22.3429 61.2251 24.3416 58.8686 24.3811C57.6922 24.401 56.5833 23.9579 55.7451 23.1335C54.9064 22.3086 54.4443 21.2063 54.4443 20.0299C54.4443 20.0278 54.4443 20.0258 54.4443 20.0237V18.1672C54.4443 17.0823 53.5646 16.2022 52.4793 16.2022C51.3939 16.2022 50.5142 17.0823 50.5142 18.1672V20.0299C50.5142 22.4293 48.563 24.3816 46.1651 24.3816C43.7672 24.3816 41.8165 22.4298 41.816 20.0309C41.816 20.0304 41.816 20.0299 41.816 20.0299L41.8155 18.1672C41.8155 17.0818 40.9358 16.2022 39.8504 16.2022C38.7651 16.2027 37.8854 17.0823 37.8854 18.1677L37.8859 20.0222C37.8859 20.0248 37.8854 20.0273 37.8854 20.0299C37.8854 22.4293 35.9342 24.3816 33.5363 24.3816C31.1384 24.3816 29.1872 22.4293 29.1872 20.0299C29.1872 20.0278 29.1872 20.0258 29.1872 20.0237V18.1672C29.1872 17.0823 28.307 16.2022 27.2221 16.2022C26.1368 16.2022 25.2571 17.0823 25.2571 18.1672V20.0299C25.2571 22.4293 23.3059 24.3816 20.908 24.3816C18.51 24.3816 16.5588 22.4298 16.5588 20.0309C16.5588 20.0304 16.5588 20.0299 16.5588 20.0299L16.5583 18.1672C16.5583 17.0818 15.6787 16.2022 14.5933 16.2022C13.508 16.2027 12.6283 17.0823 12.6283 18.1677L12.6288 19.9188C12.6288 19.9209 12.6283 19.9234 12.6283 19.926C12.6283 22.3429 10.7109 24.3416 8.35439 24.3811C7.17692 24.401 6.06852 23.9573 5.23083 23.1335C4.39212 22.3086 3.93003 21.2063 3.93003 20.0299V9.82508C3.93003 8.25051 4.54308 6.7701 5.65659 5.65659C6.7701 4.54308 8.25051 3.93003 9.82508 3.93003H57.2475C60.498 3.93003 63.1425 6.57462 63.1425 9.82508V19.926Z" fill="#492F87"/>
<path d="M52.8462 31.91H34.3402C33.2554 31.91 32.3752 32.7897 32.3752 33.875V43.8465C32.3752 44.9313 33.2554 45.8115 34.3402 45.8115H52.8462C53.931 45.8115 54.8112 44.9313 54.8112 43.8465V33.875C54.8112 32.7897 53.931 31.91 52.8462 31.91ZM50.8811 41.8815H36.3052V35.8401H50.8811V41.8815Z" fill="#492F87"/>
</svg>
